<svg xmlns="http://www.w3.org/2000/svg" xmlns:xlink="http://www.w3.org/1999/xlink" xmlns:lucid="lucid" width="3724" height="2822"><g transform="translate(-579 -27293)" lucid:page-tab-id="VUGoc3pqB3uuG"><path d="M-3489-773H7138v31080H-3489z" fill="#fff"/><path d="M1060.34 28053a5 5 0 0 1 5-5H4021.2a5 5 0 0 1 5 5v1862a5 5 0 0 1-5 5H1065.35a5 5 0 0 1-5-5z" stroke="#232f3e" stroke-width="4" fill="#fff" fill-opacity="0"/><path d="M1060.34 28048h56v56h-56v-56z" stroke="#fff" stroke-opacity="0" fill="#232f3e"/><path d="M1078.56 28073.87c-.04.48.04.87.16 1.34.13.4.3.7.5 1.08.04.1.08.2.08.33 0 .2-.12.36-.3.46l-.93.62c-.13.08-.25.13-.37.13-.17 0-.33-.06-.45-.2-.2-.22-.37-.43-.54-.7-.15-.25-.27-.53-.44-.86-1.1 1.37-2.63 2.1-4.4 2.06-1.14.06-2.13-.3-2.95-1.08-.77-.8-1.14-1.76-1.1-2.85-.04-1.23.4-2.28 1.36-3.08 1.06-.85 2.3-1.23 3.65-1.16.6 0 1.04.02 1.6.1.6.1 1.12.2 1.74.33v-1.1c.08-.88-.17-1.67-.7-2.37-.74-.56-1.56-.8-2.46-.7-.54 0-1.03.07-1.6.2-.58.13-1.03.3-1.6.5l-.5.2h-.25c-.2 0-.32-.16-.32-.45v-.75c0-.18.05-.34.13-.5.12-.16.25-.26.4-.33.67-.3 1.2-.5 1.9-.67.78-.2 1.48-.3 2.3-.28 1.48-.13 2.8.26 3.9 1.2.94 1.05 1.35 2.28 1.23 3.67zm-6.08 2.28c.58 0 1.07-.1 1.6-.28.58-.2 1.03-.5 1.44-.96.25-.27.4-.57.5-.93.12-.45.16-.84.16-1.3v-.67c-.53-.1-.95-.17-1.44-.2h-1.4c-.8-.08-1.55.12-2.2.58-.55.45-.8 1.04-.75 1.73-.05.62.1 1.16.52 1.6.45.38 1 .52 1.56.45zm12 1.6c-.2 0-.42-.03-.58-.15-.17-.17-.25-.36-.33-.6l-3.5-11.5-.1-.62c0-.24.1-.37.36-.37h1.48c.2 0 .38.04.58.15.16.18.25.37.3.6l2.5 9.96 2.37-9.93c0-.24.1-.44.3-.6.16-.12.36-.16.57-.14h1.2c.23-.02.4.02.6.14.17.18.25.36.3.6l2.33 9.94 2.55-10c.04-.2.16-.4.32-.58.17-.1.38-.17.58-.14h1.4c.16 0 .33.12.37.3v.31s0 .2-.13.35l-3.6 11.53c-.05.22-.13.42-.3.6-.2.1-.37.14-.57.13h-1.28c-.25.04-.46-.02-.62-.15-.17-.17-.25-.36-.3-.6l-2.3-9.6-2.3 9.6c-.03.24-.1.43-.28.6-.2.13-.4.2-.6.16zm19.2.38c-.8 0-1.5-.07-2.3-.25-.65-.13-1.14-.3-1.7-.6-.22-.1-.38-.23-.46-.4-.1-.16-.13-.3-.13-.45v-.75c0-.3.12-.46.32-.46h.3l.36.15c.57.24 1.03.4 1.6.5.62.15 1.15.2 1.8.2.8.06 1.48-.1 2.18-.48.5-.32.78-.83.74-1.42.04-.4-.12-.76-.37-1.04-.45-.4-.94-.65-1.52-.8l-2.16-.67c-.95-.26-1.73-.74-2.38-1.5-.5-.66-.74-1.36-.74-2.2 0-.58.12-1.07.4-1.6.3-.5.62-.88 1.07-1.2.5-.4.98-.62 1.6-.8.65-.17 1.2-.25 1.88-.24.33-.03.62-.03 1 0l.97.16.83.23.65.25c.17.1.3.22.45.38.1.15.13.3.13.5v.7c0 .3-.12.47-.36.47-.2-.03-.37-.1-.58-.18-.94-.43-1.8-.6-2.87-.58-.7-.04-1.32.08-1.98.4-.5.3-.74.8-.7 1.36 0 .4.12.76.45 1.05.5.4 1 .65 1.6.82l2.1.67c.94.24 1.68.7 2.3 1.44.5.64.7 1.3.7 2.1 0 .63-.13 1.17-.37 1.73-.3.55-.62.95-1.1 1.32-.5.4-1 .66-1.6.84-.75.23-1.4.33-2.15.34zM1106.44 28085.5c-5.6 3.8-11.36 5.56-18.15 5.54-8.56.05-15.84-2.74-22.17-8.45-.5-.42 0-1 .5-.68 7.06 4.05 14 5.9 22.2 5.9 6.08-.04 11.28-1.1 16.92-3.47.82-.35 1.5.55.7 1.14z" stroke="#fff" stroke-opacity="0" fill="#fff"/><path d="M1108.5 28083.2c-.64-.82-4.16-.38-5.75-.2-.47 0-.54-.36-.1-.67 2.8-1.97 7.4-1.4 8-.73.58.67-.16 5.28-2.8 7.5-.4.33-.77.13-.6-.3.55-1.52 1.87-4.83 1.25-5.6z" stroke="#fff" stroke-opacity="0" fill="#fff"/><use xlink:href="#a" transform="matrix(1,0,0,1,1131.336931128836,28068) translate(0 24.888888888888893)"/><use xlink:href="#b" transform="matrix(1,0,0,1,1131.336931128836,28068) translate(78.2962962962963 24.888888888888893)"/><path d="M1438.12 28213a5 5 0 0 1 5-5h2472.13a5 5 0 0 1 5 5v1526a5 5 0 0 1-5 5H1443.12a5 5 0 0 1-5-5z" stroke="#248814" stroke-width="4" fill="#fff" fill-opacity="0"/><path d="M1438.12 28208h56v56h-56v-56z" stroke="#fff" stroke-opacity="0" fill="#248814"/><path d="M1469.88 28236.3h-1.18v-1.1c-.12-1.73-1.47-3.07-3.2-3.2-1.9-.13-3.54 1.3-3.67 3.2v1.07h-1.18c-.44 0-.8.36-.8.8v6.13c0 .44.36.8.8.8h9.23c.45 0 .8-.36.8-.8v-6.1c0-.43-.35-.8-.8-.8zm-6.4-1.06c.1-1.03 1-1.77 2-1.67.9.08 1.6.76 1.67 1.67v1.06h-3.7zm5.65 7.08h-7.68v-4.42h7.63z" stroke="#fff" stroke-opacity="0" fill="#fff"/><path d="M1480.4 28233.74c-.1-2.44-1.6-4.47-3.88-5.3-1.58-.46-3.16-.13-4.4.9-.67-1.44-1.47-2.6-2.6-3.75-3.23-3.36-7.94-4.3-12.18-2.4-4.04 1.9-6.4 5.63-6.53 10.05v.7c-3.4.97-5.65 4.08-5.5 7.65v.63c.4 4.28 3.92 7.52 8.2 7.47h26.02s7.4-.64 7.4-8.1c.05-3.9-2.66-7.2-6.53-7.85zm-.97 14.4h-25.92c-3.44.05-6.27-2.53-6.56-5.97v-.52c-.17-3.05 1.9-5.7 4.9-6.3.38-.12.63-.48.6-.9-.05-.4-.05-.73 0-1.15.07-3.78 2.1-6.94 5.52-8.6 1.25-.57 2.42-.8 3.83-.84 2.6.08 4.86 1.04 6.7 2.94 1.24 1.3 2.03 2.6 2.6 4.3.05.15.14.28.26.37.38.27.88.2 1.13-.17h-.02c.84-1.18 2.25-1.67 3.63-1.3 1.8.72 2.88 2.4 2.84 4.32-.1.4.2.83.62.9 3.58.36 6.2 3.55 5.83 7.12-.3 3.13-2.72 5.52-5.84 5.85z" stroke="#fff" stroke-opacity="0" fill="#fff"/><use xlink:href="#c" transform="matrix(1,0,0,1,1509.1230638297884,28228) translate(0 19.555555555555557)"/><path d="M1119.54 28133a5 5 0 0 1 5-5h2842a5 5 0 0 1 5 5v1686a5 5 0 0 1-5 5h-2842a5 5 0 0 1-5-5z" fill="#fff" fill-opacity="0"/><path d="M1138.55 28128h12m8 0h12.02m8 0h12m8.02 0h12m8 0h12m8.02 0h12m8 0h12.02m8 0h12m8.02 0h12m8 0h12.02m8 0h12.02m8 0h12m8.02 0h12m8 0h12.02m8 0h12m8.02 0h12m8 0h12.02m8 0h12.02m8 0h12m8 0h12.02m8 0h12.02m8 0h12m8.02 0h12m8 0h12.02m8 0h12m8.02 0h12m8 0h12.02m8 0h12.02m8 0h12m8 0h12.02m8 0H1751m8 0h12m8.02 0h12m8 0h12.02m8 0h12m8.02 0h12m8 0h12.02m8 0h12.02m8 0h12m8.02 0h12m8 0h12.02m8 0h12m8.02 0h12m8 0h12.02m8 0h12m8.02 0h12m8.02 0h12m8 0h12.02m8 0h12m8.02 0h12m8 0h12.02m8 0h12m8.02 0h12m8 0h12.02m8 0h12.02m8 0h12m8.02 0h12m8 0h12.02m8 0h12m8.02 0h12m8 0h12.02m8 0h12m8.02 0h12m8 0h12.02m8 0h12.02m8 0h12m8.02 0h12m8 0h12.02m8 0h12m8.02 0h12m8 0h12.02m8 0h12m8.02 0h12m8 0h12.02m8 0h12.02m8 0h12m8.02 0h12m8 0h12.02m8 0h12m8.02 0h12m8 0h12.02m8 0h12.02m8 0h12m8.02 0h12m8 0h12.02m8 0h12m8.02 0h12m8 0h12.02m8 0h12m8.02 0h12m8 0h12.02m8 0h12.02m8 0h12m8.02 0h12m8 0h12.02m8 0h12m8.02 0h12m8 0h12.02m8 0h12.02m8 0h12m8 0h12.02m8 0H3172m8 0h12m8.02 0h12m8 0h12.02m8 0h12m8.02 0h12m8 0h12.02m8 0h12.02m8 0h12m8.02 0h12m8 0h12.02m8 0h12m8.02 0h12m8 0h12.02m8 0h12.02m8 0h12m8.02 0h12m8 0h12.02m8 0h12m8.02 0h12m8 0h12.02m8 0h12m8.02 0h12m8 0h12.02m8 0h12.02m8 0h12m8.02 0h12m8 0h12.02m8 0h12m8.02 0h12m8 0h12.02m8 0h12m8.02 0h12m8 0h12.02m8 0h12.02m8 0h12m8.02 0h12m8 0h12.02m8 0h12m8.02 0h12m8 0h6.02l.78.06.76.18.73.3.68.42.6.5.5.6.4.67.3.73.2.76.06.78v6.02m0 8.03v12.04m0 8.02v12.04m0 8.03v12.04m0 8.02v12.05m0 8.04v12.04m0 8.03v12.05m0 8.03v12.04m0 8.03v12.04m0 8.02v12.04m0 8.03v12.04m0 8.02v12.05m0 8.04v12.04m0 8.03v12.05m0 8.03v12.04m0 8.03v12.04m0 8.02v12.04m0 8.03v12.04m0 8.02v12.05m0 8.04v12.04m0 8.03v12.05m0 8.03v12.04m0 8.03v12.04m0 8.02v12.04m0 8.03v12.04m0 8.02v12.05m0 8.04v12.04m0 8.03v12.05m0 8.03v12.04m0 8.03v12.04m0 8.02v12.04m0 8.03v12.04m0 8.02v12.05m0 8.04v12.04m0 8.03v12.05m0 8.03v12.04m0 8.03v12.04m0 8.02v12.04m0 8.03v12.04m0 8.02v12.05m0 8.04v12.04m0 8.03v12.05m0 8.03v12.04m0 8.03v12.04m0 8.02v12.04m0 8.03v12.04m0 8.02v12.05m0 8.04v12.04m0 8.03v12.05m0 8.03v12.04m0 8.03v12.04m0 8.02v12.04m0 8.03v12.04m0 8.02v12.05m0 8.04v12.04m0 8.03v12.05m0 8.03v12.04m0 8.03v12.04m0 8.02v12.04m0 8.03v12.04m0 8.02v12.05m0 8.04v12.04m0 8.03v12.05m0 8.03v12.04m0 8.03v12.04m0 8.02v12.04m0 8.03v12.04m0 8.02v12.05m0 8.04v12.04m0 8.03v12.05m0 8.03v12.04m0 8.03v12.04m0 8.02v12.04m0 8.03v12.04m0 8.02v12.05m0 8.04v12.04m0 8.03v12.05m0 8.03v12.04m0 8.03v12.04m0 8.02v12.04m0 8.03v12.04m0 8.02v12.05m0 8.04v12.04m0 8.03v12.05m0 8.03v6.02l-.07.78-.18.76-.3.73-.42.67-.5.6-.6.5-.67.42-.72.3-.76.18-.78.06h-6m-8 0h-12.02m-8 0h-12m-8.02 0h-12m-8 0h-12.02m-8 0h-12.02m-8 0h-12m-8.02 0h-12m-8 0h-12.02m-8 0h-12m-8.02 0h-12m-8 0h-12.02m-8 0h-12.02m-8 0h-12m-8.02 0h-12m-8 0h-12.02m-8 0h-12m-8.02 0h-12m-8 0h-12.02m-8 0h-12.02m-8 0h-12m-8.02 0h-12m-8 0h-12.02m-8 0h-12m-8.02 0h-12m-8 0h-12.02m-8 0h-12m-8.02 0h-12m-8 0h-12.02m-8 0h-12.02m-8 0h-12m-8 0h-12.02m-8 0h-12.02m-8 0h-12m-8.02 0h-12m-8 0h-12.02m-8 0h-12m-8.02 0h-12m-8 0H3200m-8 0h-12.02m-8 0h-12m-8.02 0h-12m-8 0h-12.02m-8 0h-12m-8.02 0h-12m-8 0h-12.02m-8 0h-12m-8.02 0h-12m-8.02 0h-12m-8 0h-12.02m-8 0h-12m-8.02 0h-12m-8 0h-12.02m-8 0h-12m-8.02 0h-12m-8 0h-12.02m-8 0h-12.02m-8 0h-12m-8.02 0h-12m-8 0h-12.02m-8 0h-12m-8.02 0h-12m-8 0h-12.02m-8 0h-12m-8.02 0h-12m-8 0h-12.02m-8 0h-12.02m-8 0h-12m-8.02 0h-12m-8 0h-12.02m-8 0h-12m-8.02 0h-12m-8 0h-12.02m-8 0h-12m-8.02 0h-12m-8 0h-12.02m-8 0h-12.02m-8 0h-12m-8.02 0h-12m-8 0h-12.02m-8 0h-12m-8.02 0h-12m-8 0h-12.02m-8 0h-12.02m-8 0h-12m-8.02 0h-12m-8 0h-12.02m-8 0h-12m-8.02 0h-12m-8 0h-12.02m-8 0h-12.02m-8 0h-12m-8.02 0h-12m-8 0h-12.02m-8 0h-12m-8.02 0h-12m-8 0h-12.02m-8 0h-12m-8.02 0h-12m-8 0h-12.02m-8 0h-12.02m-8 0h-12m-8 0h-12.02m-8 0h-12.02m-8 0h-12m-8.02 0h-12m-8 0h-12.02m-8 0h-12m-8.02 0h-12m-8 0H1779m-8 0h-12.02m-8 0h-12m-8.02 0h-12m-8 0h-12.02m-8 0h-12m-8.02 0h-12m-8 0h-12.02m-8 0h-12.02m-8 0h-12m-8.02 0h-12m-8 0h-12.02m-8 0h-12m-8.02 0h-12m-8 0h-12.02m-8 0h-12m-8.02 0h-12m-8 0h-12.02m-8 0h-12.02m-8 0h-12m-8.02 0h-12m-8 0h-12.02m-8 0h-12m-8.02 0h-12m-8 0h-12.02m-8 0h-12.02m-8 0h-12m-8 0h-12.02m-8 0h-12.02m-8 0h-12m-8.02 0h-12m-8 0h-12.02m-8 0h-12m-8.02 0h-6l-.78-.06-.77-.18-.73-.3-.67-.42-.6-.5-.5-.6-.42-.67-.3-.73-.18-.76-.06-.78v-6.02m0-8.03v-12.04m0-8.02v-12.04m0-8.03v-12.04m0-8.02v-12.05m0-8.04v-12.04m0-8.03v-12.05m0-8.03v-12.04m0-8.03v-12.04m0-8.02v-12.04m0-8.03v-12.04m0-8.02v-12.05m0-8.04v-12.04m0-8.03v-12.05m0-8.03v-12.04m0-8.03v-12.04m0-8.02v-12.04m0-8.03v-12.04m0-8.02v-12.05m0-8.04v-12.04m0-8.03v-12.05m0-8.03v-12.04m0-8.03v-12.04m0-8.02v-12.04m0-8.03v-12.04m0-8.02v-12.05m0-8.04v-12.04m0-8.03v-12.05m0-8.03v-12.04m0-8.03v-12.04m0-8.02v-12.04m0-8.03v-12.04m0-8.02v-12.05m0-8.04v-12.04m0-8.03v-12.05m0-8.03v-12.04m0-8.03v-12.04m0-8.02v-12.04m0-8.03v-12.04m0-8.02v-12.05m0-8.04v-12.04m0-8.03v-12.05m0-8.03v-12.04m0-8.03v-12.04m0-8.02v-12.04m0-8.03v-12.04m0-8.02v-12.05m0-8.04v-12.04m0-8.03v-12.05m0-8.03v-12.04m0-8.03v-12.04m0-8.02v-12.04m0-8.03v-12.04m0-8.02v-12.05m0-8.04v-12.04m0-8.03v-12.05m0-8.03v-12.04m0-8.03v-12.04m0-8.02v-12.04m0-8.03v-12.04m0-8.02v-12.05m0-8.04v-12.04m0-8.03v-12.05m0-8.03v-12.04m0-8.03v-12.04m0-8.02v-12.04m0-8.03v-12.04m0-8.02v-12.05m0-8.04v-12.04m0-8.03v-12.05m0-8.03v-12.04m0-8.03v-12.04m0-8.02v-12.04m0-8.03v-12.04m0-8.02v-12.05m0-8.04v-12.04m0-8.03v-12.05m0-8.03v-12.04m0-8.03v-12.04m0-8.02v-12.04m0-8.03v-12.04m0-8.02v-12.05m0-8.04v-12.04m0-8.03v-12.05m0-8.03v-6.02l.06-.78.18-.76.3-.73.4-.67.52-.6.6-.5.67-.42.72-.3.76-.18.78-.06h6" stroke="#147eba" stroke-width="4" fill="none"/><path d="M1119.54 28128h56v56h-56v-56z" stroke="#fff" stroke-opacity="0" fill="#147eba"/><path d="M1163.38 28157.36l-5.96-7.36 5.96-7.4h-26.17v-2.08c1-.32 1.63-1.16 1.63-2.2-.1-1.15-1.02-2.02-2.16-2.14-1.3-.08-2.44.87-2.53 2.15 0 1.03.63 1.87 1.58 2.2v33.88h-4.02v1.6h9.44v-1.6h-3.93v-17.04zm-26.96-19.75c.4-.03.76.33.76.73 0 .44-.32.75-.73.75-.4.04-.76-.3-.76-.7v-.05c0-.4.3-.72.72-.72zm23.6 6.62l-4.66 5.78 4.66 5.73h-22.8v-11.5z" stroke="#fff" stroke-opacity="0" fill="#fff"/><use xlink:href="#d" transform="matrix(1,0,0,1,1190.5369311288368,28148) translate(0 19.555555555555557)"/><use xlink:href="#e" transform="matrix(1,0,0,1,1190.5369311288368,28148) translate(84.06172839506173 19.555555555555557)"/><path d="M1485.52 28565a5 5 0 0 1 5-5H3824.8a5 5 0 0 1 5 5v1142a5 5 0 0 1-5 5H1490.52a5 5 0 0 1-5-5z" fill="#5a6c86" fill-opacity=".13"/><path d="M2259.13 28629a5 5 0 0 1 5-5h634.2a5 5 0 0 1 5 5v518a5 5 0 0 1-5 5h-634.2a5 5 0 0 1-5-5z" fill="#147eba" fill-opacity=".13"/><path d="M2259.13 28624h56v56h-56v-56z" stroke="#fff" stroke-opacity="0" fill="#147eba"/><path d="M2302.5 28646.18c-.14-.17-.33-.25-.55-.25h-5.15v-5.58c-.03-2.54-.96-4.7-2.84-6.4-1.9-1.83-4.14-2.75-6.77-2.75-2.66 0-4.9.83-6.8 2.62-1.9 1.7-2.88 3.87-2.9 6.4v5.66h-5.16c-.25 0-.43.1-.6.25-.15.17-.2.34-.2.6v25.28c0 .43.34.8.8.8h29.58c.47 0 .8-.37.8-.8v-25.28c0-.2-.05-.38-.2-.54zm-23.45-5.9c.03-2.13.8-3.88 2.37-5.3 1.62-1.5 3.53-2.2 5.74-2.2 2.22 0 4.12.75 5.7 2.25 1.54 1.4 2.32 3.2 2.32 5.32v5.58h-16.16zm22.1 30.94h-28.03v-23.7h28.02z" stroke="#fff" stroke-opacity="0" fill="#fff"/><path d="M2286.33 28661.3v6.25h1.6v-6.23c2.13-.4 3.63-2.2 3.63-4.35 0-2.43-1.97-4.4-4.4-4.43-2.2-.03-4.06 1.5-4.44 3.68-.4 2.4 1.2 4.68 3.6 5.1zm.82-7.15c.78 0 1.44.27 2 .82.54.56.82 1.22.8 2 .03 1.55-1.2 2.8-2.74 2.82h-.05c-1.56.1-2.92-1.06-3.04-2.62-.1-1.56 1.06-2.93 2.62-3.03.15-.02.28-.02.43 0z" stroke="#fff" stroke-opacity="0" fill="#fff"/><use xlink:href="#f" transform="matrix(1,0,0,1,2330.131488732532,28644) translate(0 16)"/><use xlink:href="#g" transform="matrix(1,0,0,1,2330.131488732532,28644) translate(67.66666666666667 16)"/><path d="M2264.2 29237a5 5 0 0 1 5-5h634.2a5 5 0 0 1 5 5v438a5 5 0 0 1-5 5h-634.2a5 5 0 0 1-5-5z" fill="#248814" fill-opacity=".13"/><path d="M2264.2 29232h56v56h-56v-56z" stroke="#fff" stroke-opacity="0" fill="#248814"/><path d="M2307.58 29254.18c-.16-.17-.35-.25-.57-.25h-5.13v-5.58c-.03-2.54-.97-4.7-2.84-6.4-1.9-1.83-4.15-2.75-6.77-2.75-2.66 0-4.9.83-6.8 2.62-1.9 1.7-2.88 3.87-2.9 6.4v5.66h-5.15c-.24 0-.43.1-.6.25-.14.17-.2.34-.2.6v25.28c0 .43.34.8.8.8H2307c.47 0 .8-.37.8-.8v-25.28c0-.2-.05-.38-.2-.54zm-23.47-5.9c.04-2.13.82-3.88 2.38-5.3 1.63-1.5 3.53-2.2 5.74-2.2 2.22 0 4.12.75 5.72 2.25 1.52 1.4 2.3 3.2 2.3 5.32v5.58h-16.16zm22.1 30.94h-28v-23.7h28z" stroke="#fff" stroke-opacity="0" fill="#fff"/><path d="M2291.4 29269.3v6.25h1.6v-6.23c2.12-.4 3.62-2.2 3.63-4.35 0-2.43-1.98-4.4-4.42-4.43-2.2-.03-4.04 1.5-4.4 3.68-.43 2.4 1.2 4.68 3.6 5.1zm.8-7.15c.8 0 1.45.27 2 .82.56.56.83 1.22.82 2 .02 1.55-1.2 2.8-2.75 2.82h-.06c-1.55.1-2.9-1.06-3.03-2.62-.1-1.56 1.05-2.93 2.6-3.03.16-.02.3-.02.44 0z" stroke="#fff" stroke-opacity="0" fill="#fff"/><use xlink:href="#h" transform="matrix(1,0,0,1,2335.1935385766105,29252) translate(0 16)"/><use xlink:href="#i" transform="matrix(1,0,0,1,2335.1935385766105,29252) translate(59.888888888888886 16)"/><path d="M3037.92 28629a5 5 0 0 1 5-5h657.13a5 5 0 0 1 5 5v518a5 5 0 0 1-5 5h-657.13a5 5 0 0 1-5-5z" fill="#147eba" fill-opacity=".13"/><path d="M3037.92 28624h56v56h-56v-56z" stroke="#fff" stroke-opacity="0" fill="#147eba"/><path d="M3081.3 28646.18c-.16-.17-.34-.25-.56-.25h-5.15v-5.58c-.04-2.54-.98-4.7-2.85-6.4-1.9-1.83-4.15-2.75-6.77-2.75-2.65 0-4.9.83-6.8 2.62-1.9 1.7-2.87 3.87-2.9 6.4v5.66h-5.15c-.25 0-.44.1-.6.25-.15.17-.2.34-.2.6v25.28c0 .43.33.8.8.8h29.58c.48 0 .82-.37.82-.8v-25.28c0-.2-.07-.38-.22-.54zm-23.46-5.9c.03-2.13.8-3.88 2.37-5.3 1.63-1.5 3.53-2.2 5.75-2.2 2.2 0 4.12.75 5.7 2.25 1.54 1.4 2.32 3.2 2.32 5.32v5.58h-16.16zm22.1 30.94h-28.03v-23.7h28.03z" stroke="#fff" stroke-opacity="0" fill="#fff"/><path d="M3065.1 28661.3v6.25h1.62v-6.23c2.13-.4 3.62-2.2 3.63-4.35 0-2.43-1.98-4.4-4.42-4.43-2.2-.03-4.05 1.5-4.42 3.68-.4 2.4 1.2 4.68 3.6 5.1zm.83-7.15c.8 0 1.45.27 2 .82.55.56.83 1.22.82 2 0 1.55-1.2 2.8-2.75 2.82h-.07c-1.55.1-2.92-1.06-3.03-2.62-.12-1.56 1.05-2.93 2.6-3.03.16-.02.28-.02.43 0z" stroke="#fff" stroke-opacity="0" fill="#fff"/><use xlink:href="#j" transform="matrix(1,0,0,1,3108.917431909999,28644) translate(0 14.4)"/><use xlink:href="#k" transform="matrix(1,0,0,1,3108.917431909999,28644) translate(60.9 14.4)"/><path d="M3035.93 29242.72a5 5 0 0 1 5-5h634.2a5 5 0 0 1 5 5v438a5 5 0 0 1-5 5h-634.2a5 5 0 0 1-5-5z" fill="#248814" fill-opacity=".13"/><path d="M3035.93 29237.72h56v56h-56v-56z" stroke="#fff" stroke-opacity="0" fill="#248814"/><path d="M3079.3 29259.9c-.14-.17-.33-.25-.55-.25h-5.15v-5.58c-.03-2.54-.96-4.7-2.84-6.4-1.9-1.83-4.15-2.75-6.77-2.75-2.66 0-4.9.83-6.8 2.62-1.9 1.7-2.88 3.87-2.9 6.4v5.67h-5.16c-.25 0-.43.1-.6.25-.15.17-.2.34-.2.6v25.28c0 .42.34.8.8.8h29.58c.47 0 .8-.38.8-.8v-25.3c0-.2-.05-.37-.2-.53zm-23.45-5.9c.03-2.13.8-3.88 2.37-5.3 1.62-1.5 3.53-2.2 5.74-2.2 2.22 0 4.12.75 5.7 2.25 1.54 1.4 2.32 3.2 2.32 5.32v5.58h-16.16zm22.1 30.94h-28.03v-23.7h28.02z" stroke="#fff" stroke-opacity="0" fill="#fff"/><path d="M3063.13 29275.03v6.24h1.6v-6.23c2.13-.4 3.63-2.2 3.63-4.35 0-2.44-1.97-4.42-4.4-4.44-2.2-.03-4.06 1.5-4.44 3.68-.4 2.4 1.2 4.68 3.6 5.1zm.82-7.16c.78 0 1.44.27 2 .83.54.55.82 1.2.8 2 .03 1.54-1.2 2.8-2.74 2.8h-.05c-1.56.13-2.92-1.04-3.04-2.6-.1-1.56 1.06-2.93 2.62-3.03h.43z" stroke="#fff" stroke-opacity="0" fill="#fff"/><use xlink:href="#h" transform="matrix(1,0,0,1,3106.931488732564,29257.72028440333) translate(0 16)"/><use xlink:href="#i" transform="matrix(1,0,0,1,3106.931488732564,29257.72028440333) translate(59.888888888888886 16)"/><path d="M1620.27 28256h214.1v214.1h-214.1V28256z" stroke="#fff" stroke-opacity="0" stroke-width="2" fill="#3b48cc"/><path d="M1758.6 28336.6c0-8.26-16.24-12.1-31.4-12.1-15.18 0-31.42 3.84-31.42 12.1 0 .45.06.76.12 1.22v51.5c-.12 8.62 16.18 12.24 31.4 12.24 15.3 0 31.43-3.77 31.43-12.02v-52.95zm-31.35-6.4c16.62 0 25.68 4.54 25.68 6.4 0 1.84-9 6.38-25.68 6.38-16.74 0-25.68-4.47-25.68-6.4 0-1.84 9-6.4 25.68-6.4zm25.68 59.34c0 1.85-9 6.32-25.68 6.32s-25.68-4.47-25.68-6.32v-9.02c5.98 3.32 16.1 4.86 25.68 4.86 9.57 0 19.58-1.54 25.68-4.78zm0-16.26c0 1.85-9 6.4-25.68 6.4-16.74 0-25.68-4.55-25.68-6.4h.06v-10.87c6.04 3.24 16.12 4.8 25.68 4.8 9.58 0 19.6-1.56 25.7-4.72zm0-18.2c0 1.86-9 6.48-25.68 6.48-16.74 0-25.68-4.62-25.68-6.47h.06v-11.1c6.1 3.22 16.05 4.7 25.68 4.7 9.65 0 19.78-1.55 25.7-4.87zM1665.7 28428.75h18.8v5.7h-25.68c-1.6 0-2.87-1.28-2.87-2.87v-25.68h5.7v18.76l21.44-21.38 3.97 4.02zM1798.7 28405.9v25.68c0 1.6-1.27 2.87-2.87 2.87h-25.7v-5.7h18.82l-21.1-21.15 4.05-4 21.1 21.07v-18.76zM1798.7 28294.58v25.7h-5.7v-18.86l-21.1 21.1-4.04-4.04 21.06-21.07h-18.78v-5.7h25.7c1.6 0 2.85 1.28 2.85 2.88zM1687.07 28318.8l-3.98 4-21.45-21.4v18.82h-5.7v-25.7c0-1.6 1.28-2.86 2.87-2.86h25.67v5.7h-18.8zM1683.54 28388.63c-17.45-6.26-27.44-15.88-27.44-26.3 0-10.4 10-19.97 27.44-26.28l1.93 5.36c-14.8 5.38-23.67 13.16-23.67 20.94 0 7.78 8.87 15.56 23.67 20.93zM1769.52 28389.26l-1.83-5.44c15.83-5.33 25.3-13.35 25.3-21.48s-9.47-16.15-25.3-21.54l1.82-5.38c18.54 6.25 29.17 16.1 29.17 26.92s-10.64 20.62-29.18 26.92z" stroke="#fff" stroke-opacity="0" stroke-width="2" fill="#fff"/><use xlink:href="#l" transform="matrix(1,0,0,1,1590.2709119198162,28479.10674382979) translate(77.02777777777777 16)"/><use xlink:href="#m" transform="matrix(1,0,0,1,1590.2709119198162,28479.10674382979) translate(155.86111111111111 16)"/><path d="M1485.52 28560h214.1v214.1h-214.1V28560z" stroke="#000" stroke-opacity="0" fill="url(#n)"/><path d="M1654.3 28697.54c1.03.6 1.68 1.62 1.68 2.8 0 1.17-.52 2.2-1.56 2.94l-60.1 36.77c-.66.3-1.2.44-1.84.44-.52 0-1.17-.15-1.7-.45l-60.23-36.77c-.92-.6-1.57-1.77-1.57-2.94v-70.17c0-1.17.65-2.2 1.57-2.8l53.46-33.53c1.05-.6 2.35-.6 3.4 0 1.04.6 1.82 1.62 1.82 2.94v30c0 1.2-.65 2.22-1.7 2.95l-25.16 15.6v39.7l30.25 18.25 35.1-19.27c1.03-.43 2.2-.43 3.25.16zm-61.82 35.74l53.6-32.8-16.83-9.7-35.2 19.26c-1.05.6-2.22.44-3.26-.14l-33.4-20c-1.04-.6-1.7-1.77-1.7-2.95v-43.4c0-1.17.66-2.2 1.58-2.8l25.16-15.72v-22.22l-46.8 29.3v66.47zm65.2-106.05c1.04.6 1.7 1.77 1.7 2.94v56.78c0 1.18-.66 2.35-1.57 2.94-.5.3-1.17.43-1.82.43-.52 0-.9-.14-1.43-.3l-26.73-13.38c-1.18-.58-1.83-1.76-1.83-3.1v-28.08l-28.43-15.74c-1.05-.6-1.7-1.62-1.7-2.94v-30.02c0-1.17.65-2.35 1.7-2.94 1.04-.6 2.34-.6 3.26 0zm-4.96 54.42v-49.56l-50.2-29.58v22.36l28.43 15.74c1.04.6 1.7 1.76 1.7 2.94v27.95zm-41.07-38.1l-16.95 21.2 17.73 22.35H1605l-15.78-20.15v20h-6.78v-43.4h6.78v17.5l14.87-17.5z" stroke="#000" stroke-opacity="0" fill="#fff"/><use xlink:href="#l" transform="matrix(1,0,0,1,1455.517872332031,28783.10674382979) translate(78.08333333333333 16)"/><use xlink:href="#o" transform="matrix(1,0,0,1,1455.517872332031,28783.10674382979) translate(156.91666666666669 16)"/><path d="M2987.93 27443.17c-1.14.1-2.05.34-2.96.8l-39.44 19.43c-2.16 1.02-3.64 2.84-4.1 5.23l-9.77 43.76c-.45 2.04-.1 4.08 1.02 5.9.12.23.23.34.46.57l27.28 35c1.48 1.94 3.52 2.97 5.9 2.97h43.9c2.38 0 4.42-1.03 5.9-2.96l27.28-35c1.48-1.94 2.05-4.2 1.48-6.6l-9.78-43.65c-.45-2.4-1.93-4.2-4.1-5.23l-39.43-19.44c-1.25-.56-2.4-.9-3.64-.8z" stroke="#000" stroke-opacity="0" stroke-width="3.83" fill="#326ce5"/><path d="M2987.9 27440c-1.2.12-2.15.36-3.1.84l-41.65 20.52c-2.28 1.08-3.84 3-4.32 5.52l-10.32 46.2c-.47 2.16-.1 4.32 1.1 6.24.1.24.23.36.47.6l28.8 36.96c1.56 2.04 3.72 3.12 6.24 3.12h46.33c2.52 0 4.68-1.08 6.24-3.12l28.8-36.96c1.56-2.04 2.16-4.44 1.56-6.84l-10.32-46.2c-.47-2.52-2.03-4.44-4.3-5.52l-41.65-20.52c-1.32-.6-2.52-.96-3.84-.84zm0 3.24c1.33-.12 2.4.12 3.6.72l39.6 19.44c2.05 1.08 3.5 2.88 4.1 5.28l9.7 43.68c.5 2.4 0 4.56-1.43 6.48l-27.36 35.04c-1.43 1.92-3.47 3-5.87 3h-43.92c-2.4 0-4.43-1.08-5.87-3l-27.36-35.04c-.12-.12-.24-.36-.36-.6-1.2-1.8-1.55-3.72-1.07-5.88l9.72-43.68c.6-2.4 1.92-4.2 4.08-5.28l39.6-19.44c.96-.48 1.8-.72 2.88-.84z" stroke="#000" stroke-opacity="0" stroke-width="3.83" fill="#fff"/><path d="M2975.27 27538.76c.35-.67.78-1.16 1.27-1.47.5-.32 1.14-.5 1.9-.5 1.08 0 1.87.3 2.38.85.5.55.76 1.47.76 2.76v6.83h-1.65v-6.48c0-.72-.07-1.25-.2-1.6-.13-.35-.34-.62-.63-.77-.3-.17-.7-.25-1.22-.25-.78 0-1.4.28-1.87.83-.45.56-.7 1.3-.7 2.24v6.03h-1.64v-14.02h1.65v3.65c0 .4 0 .8-.02 1.2l-.04.7zM2992.47 27542.07c0 3.56-1.22 5.35-3.65 5.35-1.53 0-2.56-.6-3.08-1.8h-.04c.02.07.03.6.03 1.63v4h-1.65v-12.17c0-1.05-.02-1.74-.05-2.1h1.6l.02.3.04.7v.66h.05c.3-.62.68-1.08 1.16-1.37.5-.3 1.13-.45 1.92-.45 1.22 0 2.14.42 2.73 1.27.6.83.92 2.15.92 3.97zm-1.73.03c0-1.42-.2-2.44-.56-3.04-.38-.63-.97-.93-1.78-.93-.66 0-1.17.15-1.54.43-.37.28-.65.73-.84 1.33-.2.58-.3 1.38-.3 2.33 0 1.35.22 2.33.64 2.97.4.63 1.08.95 2.02.95.82 0 1.4-.3 1.78-.92.38-.62.58-1.66.58-3.13zM2997.06 27547.4c-1 0-1.75-.26-2.25-.8s-.74-1.3-.74-2.23c0-1.06.34-1.87 1-2.44.7-.56 1.78-.87 3.28-.9l2.23-.04v-.57c0-.83-.18-1.42-.5-1.78-.36-.37-.9-.55-1.63-.55-.74 0-1.28.13-1.6.4-.35.25-.55.67-.62 1.23l-1.72-.16c.28-1.84 1.6-2.76 3.98-2.76 1.24 0 2.18.3 2.8.9.64.58.96 1.43.96 2.55v4.4c0 .5.06.9.2 1.15.1.24.37.37.72.37.16 0 .34-.02.54-.06v1.07c-.4.1-.84.15-1.27.15-.62 0-1.06-.16-1.34-.5-.28-.33-.44-.85-.47-1.55h-.06c-.43.77-.92 1.34-1.48 1.67-.57.3-1.24.47-2.04.47zm.37-1.26c.6 0 1.14-.15 1.62-.42.47-.3.83-.68 1.1-1.17.28-.5.42-1 .42-1.53v-.84l-1.8.04c-.8 0-1.37.1-1.78.24-.4.15-.7.38-.93.7-.2.32-.3.73-.3 1.24 0 .55.13.98.42 1.28.28.3.7.46 1.23.46z" stroke="#000" stroke-opacity="0" fill="#fff"/><path d="M2941.55 27495.3l13.74-13.72v6.86h5.03v-20.57h55.88v20.57h5.06v-6.86l13.73 13.7-13.74 13.73v-6.85h-5.05v20.57h-55.87v-20.57h-5.04v6.85z" stroke="#000" stroke-opacity="0" stroke-width="3.4" fill="#fff"/><path d="M2966.9 27480.37l21.37-6.18 21.38 6.17-21.38 6.17zM2966.9 27482.73v22.66l19.9 11 .1-27.74zM3009.65 27482.73v22.66l-19.92 11-.1-27.74z" stroke="#000" stroke-opacity="0" stroke-width="3.4" fill="#326ce5"/><use xlink:href="#p" transform="matrix(1,0,0,1,2898.270911919808,27569) translate(43.599999999999994 14.4)"/><path d="M3288.52 27875.16c-1.13.1-2.04.34-2.95.8l-39.45 19.43c-2.16 1-3.64 2.83-4.1 5.22l-9.77 43.76c-.45 2.05-.1 4.1 1.03 5.9.1.24.22.35.45.58l27.28 35c1.5 1.94 3.54 2.97 5.92 2.97h43.88c2.4 0 4.44-1.03 5.9-2.96l27.3-35c1.47-1.94 2.04-4.22 1.47-6.6l-9.77-43.65c-.46-2.4-1.93-4.2-4.1-5.23l-39.44-19.45c-1.25-.57-2.4-.9-3.64-.8z" stroke="#000" stroke-opacity="0" stroke-width="3.83" fill="#326ce5"/><path d="M3288.5 27872c-1.2.12-2.16.36-3.1.84l-41.66 20.52c-2.27 1.08-3.83 3-4.3 5.52l-10.34 46.2c-.47 2.16-.1 4.32 1.1 6.24.1.24.23.36.47.6l28.8 36.96c1.56 2.04 3.72 3.12 6.24 3.12h46.33c2.5 0 4.67-1.08 6.23-3.12l28.8-36.96c1.57-2.04 2.16-4.44 1.57-6.96l-10.33-46.08c-.48-2.52-2.04-4.44-4.32-5.52l-41.64-20.52c-1.32-.6-2.52-.96-3.84-.84zm0 3.24c1.32-.12 2.4.12 3.6.72l39.6 19.44c2.05 1.08 3.5 2.88 4.1 5.28l9.7 43.68c.5 2.4 0 4.56-1.43 6.48l-27.37 35.04c-1.43 1.92-3.47 3-5.88 3h-43.9c-2.4 0-4.45-1.08-5.9-3l-27.36-35.04c-.1-.12-.23-.36-.36-.6-1.2-1.8-1.56-3.72-1.08-5.88l9.73-43.68c.6-2.4 1.9-4.2 4.08-5.28l39.6-19.44c.95-.48 1.8-.72 2.88-.72z" stroke="#000" stroke-opacity="0" stroke-width="3.83" fill="#fff"/><path d="M3283.3 27976.37c0 .97-.36 1.7-1.07 2.24-.7.52-1.7.8-2.96.8-1.23 0-2.2-.22-2.86-.64-.65-.42-1.1-1.07-1.3-1.96l1.47-.3c.13.55.43.95.86 1.22.45.25 1.06.38 1.84.38.84 0 1.45-.14 1.83-.4.4-.27.6-.67.6-1.2 0-.4-.14-.73-.4-.98-.28-.25-.72-.46-1.3-.63l-1.2-.32c-.94-.26-1.62-.5-2.02-.74-.4-.25-.7-.54-.93-.9-.23-.33-.35-.76-.35-1.26 0-.93.32-1.64.97-2.13.64-.5 1.6-.74 2.82-.74 1.08 0 1.95.2 2.6.6.64.4 1.05 1.04 1.22 1.92l-1.5.2c-.08-.47-.32-.8-.72-1.06-.4-.24-.94-.36-1.6-.36-.75 0-1.3.12-1.66.35-.35.24-.53.58-.53 1.06 0 .3.08.54.23.73.14.18.36.35.64.48.3.14.9.32 1.82.56.87.22 1.5.43 1.88.63.4.18.7.4.9.62.23.24.4.5.53.82.14.3.2.64.2 1.03zM3289.6 27979.2h-1.97l-3.6-10.24h1.76l2.18 6.66.63 2.24.33-1.1.35-1.12 2.26-6.68h1.75zM3295.87 27974.05c0 1.35.2 2.36.63 3.02.4.65 1.04.97 1.87.97.6 0 1.08-.16 1.47-.48.4-.33.65-.83.74-1.5l1.66.1c-.13.98-.53 1.77-1.22 2.35-.68.6-1.55.9-2.6.9-1.4 0-2.45-.46-3.18-1.36-.73-.9-1.1-2.22-1.1-3.96 0-1.72.37-3.03 1.1-3.94.74-.9 1.8-1.35 3.16-1.35 1.02 0 1.86.26 2.52.8.68.55 1.1 1.3 1.27 2.24l-1.7.13c-.1-.56-.3-1.02-.66-1.35-.35-.34-.84-.5-1.48-.5-.88 0-1.5.3-1.9.9-.4.6-.6 1.6-.6 3.03z" stroke="#000" stroke-opacity="0" fill="#fff"/><path d="M3252.8 27941.13h19.34v14h-19.34zM3279.2 27941.13h19.34v14h-19.35zM3305.6 27941.13h19.34v14h-19.35zM3273.54 27899.65h30.65v14h-30.66z" stroke="#000" stroke-opacity="0" stroke-width="3.77" fill="#fff"/><path d="M3287.1 27913.63v11.93h-24.6c-1 0-1.77.82-1.77 1.8v13.76h3.5v-11.93h24.63c.98 0 1.76-.8 1.76-1.83v-13.74z" stroke="#000" stroke-opacity="0" stroke-width="3.77" fill="#fff"/><path d="M3287.1 27913.63v13.74c0 1.02.8 1.82 1.78 1.82h24.6v11.92h3.53v-13.74c0-1-.77-1.82-1.76-1.82h-24.63v-11.93z" stroke="#000" stroke-opacity="0" stroke-width="3.77" fill="#fff"/><path d="M3287.05 27913.63v13.74c0 .22.03.44.1.64v13.12h3.53v-13.74c0-.23-.03-.42-.1-.64v-13.1z" stroke="#000" stroke-opacity="0" stroke-width="3.77" fill="#fff"/><use xlink:href="#q" transform="matrix(1,0,0,1,3198.86528,28001) translate(30.15 14.4)"/><path d="M2319.85 27843.37c-1.2.12-2.17.36-3.14.84l-41.9 20.66c-2.3 1.08-3.86 3.02-4.34 5.55l-10.38 46.5c-.5 2.17-.13 4.35 1.08 6.28.12.24.24.36.5.6l28.97 37.2c1.57 2.05 3.74 3.13 6.28 3.13h46.62c2.53 0 4.7-1.07 6.28-3.13l28.98-37.2c1.57-2.04 2.17-4.46 1.57-7l-10.4-46.36c-.47-2.52-2.04-4.46-4.34-5.54l-41.9-20.65c-1.32-.6-2.52-.96-3.85-.83z" stroke="#000" stroke-opacity="0" stroke-width="3.83" fill="#326ce5"/><path d="M2319.83 27840c-1.28.13-2.3.38-3.32.9l-44.22 21.8c-2.42 1.14-4.08 3.18-4.6 5.85l-10.95 49.08c-.5 2.3-.13 4.6 1.15 6.63.13.25.25.38.5.64l30.6 39.26c1.66 2.16 3.95 3.3 6.63 3.3h49.2c2.7 0 4.98-1.14 6.64-3.3l30.6-39.26c1.65-2.17 2.3-4.72 1.65-7.27l-10.97-49.08c-.5-2.67-2.17-4.7-4.6-5.86l-44.22-21.8c-1.4-.65-2.67-1.03-4.07-.9zm0 3.44c1.4-.13 2.55.13 3.82.77l42.07 20.66c2.17 1.14 3.7 3.06 4.33 5.6l10.33 46.4c.5 2.55 0 4.85-1.53 6.9l-29.07 37.2c-1.52 2.05-3.7 3.2-6.24 3.2h-46.65c-2.57 0-4.73-1.15-6.26-3.2l-29.07-37.2c-.12-.14-.25-.4-.38-.65-1.28-1.9-1.66-3.94-1.15-6.23l10.32-46.4c.64-2.55 2.04-4.47 4.34-5.6l42.07-20.66c1.02-.5 1.9-.76 3.06-.9z" stroke="#000" stroke-opacity="0" stroke-width="3.83" fill="#fff"/><path d="M2313.86 27948.42c0 3.8-1.3 5.7-3.87 5.7-1.63 0-2.73-.64-3.28-1.9h-.05c.03.05.04.6.04 1.7v4.25h-1.74v-12.92c0-1.12-.03-1.85-.06-2.22h1.7l.02.3c.02.16.03.4.04.76l.03.68h.03c.3-.66.72-1.15 1.23-1.46.5-.32 1.2-.47 2.03-.47 1.3 0 2.26.44 2.9 1.35.64.88.96 2.3.96 4.22zm-1.83.03c0-1.5-.2-2.58-.6-3.23-.4-.66-1.03-.98-1.9-.98-.7 0-1.23.15-1.62.46-.4.3-.68.77-.9 1.4-.2.64-.3 1.48-.3 2.5 0 1.43.23 2.47.67 3.15.44.67 1.16 1 2.15 1 .87 0 1.5-.3 1.9-.97.4-.66.6-1.76.6-3.33zM2324.97 27948.46c0 1.9-.4 3.32-1.22 4.25-.8.94-2 1.4-3.54 1.4-1.52 0-2.68-.48-3.47-1.44-.78-.98-1.18-2.37-1.18-4.2 0-3.75 1.57-5.62 4.73-5.62 1.6 0 2.78.46 3.55 1.38.76.9 1.14 2.33 1.14 4.24zm-1.84 0c0-1.5-.23-2.6-.66-3.26-.42-.68-1.15-1.02-2.16-1.02-1.02 0-1.77.34-2.23 1.04-.45.68-.68 1.77-.68 3.24 0 1.43.2 2.5.66 3.23.46.7 1.17 1.06 2.13 1.06 1.05 0 1.8-.33 2.24-1.03.45-.7.7-1.8.7-3.27zM2333.8 27952.15c-.32.7-.75 1.2-1.3 1.5-.52.3-1.2.45-1.98.45-1.32 0-2.3-.47-2.94-1.4-.62-.9-.93-2.3-.93-4.18 0-3.8 1.3-5.68 3.87-5.68.8 0 1.47.15 2 .45.53.3.96.78 1.28 1.43h.02l-.02-1.2v-4.52h1.75v12.66c0 1.13.03 1.88.07 2.25h-1.68c-.02-.1-.04-.36-.06-.75-.02-.38-.04-.7-.04-1zm-5.3-3.7c0 1.53.18 2.62.57 3.27.4.66 1.02 1 1.9 1 1 0 1.7-.37 2.16-1.08.45-.7.67-1.8.67-3.3 0-1.44-.22-2.5-.67-3.16-.45-.66-1.15-1-2.14-1-.9 0-1.53.34-1.93 1.02-.4.66-.58 1.75-.58 3.26z" stroke="#000" stroke-opacity="0" fill="#fff"/><path d="M2294.63 27882.7l25.58-7.65 25.6 7.65-25.6 7.65zM2294.63 27885.63v28.04l23.83 13.63.12-34.34zM2345.8 27885.63v28.04l-23.84 13.63-.12-34.34z" stroke="#000" stroke-opacity="0" stroke-width="3.77" fill="#fff"/><use xlink:href="#r" transform="matrix(1,0,0,1,2226.4764989972164,27976.470911919794) translate(78 14.4)"/><path d="M1862.4 29333.72c51.07 0 92.52 42.1 92.52 94s-41.45 94-92.53 94c-51.1 0-92.55-42.1-92.55-94s41.46-94 92.54-94zm0 179.54c46.44 0 84.2-38.35 84.2-85.54 0-47.2-37.76-85.54-84.2-85.54-46.47 0-84.22 38.35-84.22 85.54 0 47.2 37.75 85.54 84.2 85.54zm54.77-59.97c2.4 0 4.25 2.06 4.25 4.3v18.8c0 2.27-1.85 4.15-4.25 4.15h-18.32c-2.22 0-4.07-1.88-4.07-4.14v-18.8c0-2.24 1.85-4.3 4.07-4.3h3.5v-10.16h-17.38v10.15h3.14c2.42 0 4.27 2.06 4.27 4.3v18.8c0 2.27-1.85 4.15-4.26 4.15h-18.3c-2.4 0-4.27-1.88-4.27-4.14v-18.8c0-2.24 1.86-4.3 4.26-4.3h6.84v-14.3c0-2.44 1.85-4.32 4.07-4.32h6.86v-10.16h-50.34v10.16h6.85c2.22 0 4.07 1.88 4.07 4.32v14.3h6.84c2.4 0 4.26 2.06 4.26 4.3v18.8c0 2.27-1.85 4.15-4.26 4.15h-18.32c-2.4 0-4.25-1.88-4.25-4.14v-18.8c0-2.24 1.86-4.3 4.26-4.3h3.15v-10.16h-17.4v10.15h3.16c2.4 0 4.26 2.06 4.26 4.3v18.8c0 2.27-1.86 4.15-4.26 4.15h-17.95c-2.4 0-4.25-1.88-4.25-4.14v-18.8c0-2.24 1.85-4.3 4.26-4.3h6.48v-14.3c0-2.44 1.86-4.32 4.08-4.32h10.54v-14.48c0-2.26 1.86-4.14 4.26-4.14h25.17v-10.15h-25.17c-2.4 0-4.26-2.06-4.26-4.3v-33.66c0-2.45 1.86-4.33 4.26-4.33h58.85c2.42 0 4.27 1.9 4.27 4.34v33.65c0 2.24-1.85 4.3-4.26 4.3h-25.16v10.16h25.17c2.42 0 4.27 1.88 4.27 4.14v14.48h10.55c2.22 0 4.07 1.88 4.07 4.32v14.3zm-79.95-56.04h50.34v-25h-50.34zm3.7 74.83h10v-10.16h-10zm33.13 0h9.8v-10.16h-9.8zm29.05 0h10v-10.16h-10zm-91.42 0h9.62v-10.16h-9.62z" stroke="#000" stroke-opacity="0" fill="#4d27aa"/><use xlink:href="#s" transform="matrix(1,0,0,1,1739.8521519099713,29530.72028440333) translate(16.124999999999986 14.4)"/><use xlink:href="#t" transform="matrix(1,0,0,1,1739.8521519099713,29530.72028440333) translate(21.124999999999986 14.4)"/><use xlink:href="#u" transform="matrix(1,0,0,1,1739.8521519099713,29530.72028440333) translate(113.975 14.4)"/><use xlink:href="#v" transform="matrix(1,0,0,1,1739.8521519099713,29530.72028440333) translate(158.97500000000002 14.4)"/><path d="M2722.8 27717.8c-2.3.23-4.1.7-5.92 1.6l-78.9 38.87c-4.32 2.05-7.27 5.7-8.18 10.46l-19.55 87.53c-.9 4.1-.23 8.18 2.04 11.82.22.45.45.68.9 1.13l54.57 70.03c2.95 3.87 7.05 5.92 11.82 5.92h87.75c4.77 0 8.86-2.05 11.82-5.92l54.56-70.02c2.96-3.85 4.1-8.4 2.96-13.17l-19.56-87.3c-.9-4.77-3.87-8.4-8.2-10.46l-78.88-38.87c-2.5-1.14-4.77-1.82-7.27-1.6z" stroke="#000" stroke-opacity="0" stroke-width="3.83" fill="#326ce5"/><path d="M2722.75 27711.47c-2.4.24-4.32.72-6.24 1.68l-83.27 41.04c-4.56 2.15-7.68 6-8.64 11.03l-20.65 92.4c-.96 4.32-.24 8.64 2.16 12.48.25.5.5.73.97 1.2l57.6 73.93c3.12 4.08 7.44 6.24 12.48 6.24h92.64c5.03 0 9.35-2.16 12.47-6.24l57.6-73.92c3.12-4.07 4.32-8.87 3.12-13.67l-20.65-92.4c-.96-5.04-4.08-8.88-8.64-11.04l-83.27-41.05c-2.64-1.2-5.04-1.92-7.68-1.68zm0 6.48c2.64-.24 4.8.24 7.2 1.44l79.2 38.87c4.08 2.16 6.96 5.76 8.16 10.56l19.45 87.36c.96 4.8 0 9.1-2.88 12.95l-54.72 70.08c-2.88 3.84-6.96 6-11.76 6h-87.85c-4.8 0-8.88-2.16-11.76-6l-54.73-70.08c-.24-.24-.48-.72-.72-1.2-2.4-3.6-3.12-7.44-2.16-11.76l19.43-87.37c1.2-4.8 3.84-8.4 8.16-10.56l79.2-38.88c1.9-.97 3.6-1.45 5.75-1.7z" stroke="#000" stroke-opacity="0" stroke-width="3.83" fill="#fff"/><path d="M2682.68 27922.63c-.6 1.3-1.4 2.25-2.43 2.82-1 .57-2.26.85-3.75.85-2.5 0-4.35-.88-5.53-2.6-1.17-1.75-1.76-4.4-1.76-7.92 0-7.13 2.44-10.68 7.3-10.68 1.5 0 2.76.28 3.77.85 1 .57 1.8 1.48 2.4 2.7h.05l-.04-2.27v-8.5h3.3v23.82c0 2.13.05 3.55.1 4.23h-3.14c-.04-.2-.07-.68-.12-1.42-.05-.7-.07-1.33-.07-1.87zm-10-6.96c0 2.87.36 4.92 1.1 6.14.73 1.26 1.9 1.9 3.57 1.9 1.87 0 3.22-.7 4.07-2.03.84-1.34 1.26-3.4 1.26-6.23 0-2.7-.42-4.7-1.26-5.94-.85-1.25-2.18-1.9-4.04-1.9-1.65 0-2.85.65-3.6 1.93-.74 1.25-1.1 3.3-1.1 6.14zM2693.6 27916.42c0 2.34.45 4.16 1.4 5.43.94 1.28 2.3 1.9 4.13 1.9 1.43 0 2.57-.28 3.43-.88.87-.6 1.45-1.33 1.75-2.25l2.9.85c-1.16 3.22-3.86 4.84-8.07 4.84-2.94 0-5.18-.88-6.7-2.7-1.55-1.8-2.3-4.48-2.3-8.02 0-3.37.75-5.98 2.3-7.8 1.52-1.8 3.72-2.68 6.58-2.68 5.84 0 8.74 3.63 8.74 10.86v.47zm10.73-2.6c-.18-2.17-.7-3.74-1.6-4.7-.87-1-2.14-1.5-3.78-1.5-1.6 0-2.9.56-3.82 1.66-.93 1.1-1.43 2.6-1.5 4.54zM2728.74 27915.6c0 7.13-2.43 10.7-7.3 10.7-3.05 0-5.1-1.17-6.16-3.57h-.08c.05.12.06 1.18.06 3.23v8h-3.3v-24.32c0-2.1-.04-3.5-.1-4.18h3.18c.02.05.04.26.05.55.03.32.05.78.08 1.45l.05 1.3h.07c.6-1.25 1.36-2.17 2.33-2.74.96-.6 2.23-.9 3.8-.9 2.46 0 4.3.85 5.48 2.55 1.23 1.67 1.84 4.32 1.84 7.96zm-3.46.07c0-2.83-.38-4.88-1.12-6.1-.76-1.23-1.94-1.83-3.56-1.83-1.32 0-2.33.28-3.07.86-.75.55-1.3 1.44-1.7 2.65-.38 1.2-.57 2.77-.57 4.67 0 2.72.43 4.68 1.25 5.95.84 1.26 2.2 1.9 4.07 1.9 1.63 0 2.82-.6 3.56-1.85.76-1.24 1.15-3.3 1.15-6.25zM2732.86 27925.93v-28.05h3.3v28.05zM2758 27915.68c0 3.58-.77 6.26-2.3 8-1.52 1.75-3.75 2.62-6.66 2.62-2.9 0-5.07-.9-6.56-2.7-1.47-1.86-2.22-4.48-2.22-7.92 0-7.06 2.96-10.58 8.9-10.58 3.03 0 5.25.87 6.7 2.6 1.42 1.7 2.13 4.38 2.13 7.98zm-3.47 0c0-2.82-.42-4.88-1.24-6.15-.8-1.27-2.17-1.9-4.08-1.9-1.94 0-3.34.63-4.2 1.94-.86 1.3-1.3 3.33-1.3 6.1 0 2.7.43 4.74 1.28 6.1.85 1.35 2.2 2 4 2 2 0 3.4-.63 4.24-1.94.85-1.32 1.3-3.37 1.3-6.15zM2763.08 27933.95c-.9 0-1.65-.06-2.27-.2v-2.56c.48.07 1 .1 1.56.1 2.04 0 3.68-1.57 4.87-4.67l.32-.8-7.87-20.36h3.5l4.2 11.3.22.63.82 2.48c.47 1.4.7 2.16.75 2.34l1.28-3.74 4.36-13h3.48l-7.63 20.44c-.8 2.2-1.58 3.8-2.28 4.87-.7 1.04-1.5 1.84-2.37 2.35-.85.54-1.82.8-2.92.8z" stroke="#000" stroke-opacity="0" fill="#fff"/><path d="M2717.6 27883.64c-32.5 1.58-60.14-24.15-61.8-57.56-1.77-33.54 23.05-62.2 55.55-64.14 32.5-1.95 60.38 23.4 62.5 56.94l-23.4 1.6c-1.3-20.25-18.07-35.62-37.68-34.4-19.62 1.1-34.63 18.4-33.57 38.66.95 20.24 17.73 35.73 37.35 34.87z" stroke="#000" stroke-opacity="0" stroke-width="3.77" fill="#fff"/><path d="M2729.75 27818.92l18.58 46.9 42.93-46.9z" stroke="#000" stroke-opacity="0" stroke-width="3.77" fill="#fff"/><use xlink:href="#w" transform="matrix(1,0,0,1,2573.470911919816,27960.470911919794) translate(15.444444444444457 24.888888888888893)"/><path d="M2322.5 27683.37c-1.2.12-2.17.36-3.14.84l-41.9 20.66c-2.3 1.08-3.86 3.02-4.34 5.55l-10.4 46.5c-.47 2.17-.1 4.35 1.1 6.28.12.24.24.36.48.6l28.98 37.2c1.57 2.05 3.74 3.13 6.28 3.13h46.6c2.55 0 4.72-1.07 6.3-3.13l28.97-37.2c1.57-2.04 2.18-4.46 1.57-7l-10.38-46.36c-.5-2.52-2.06-4.46-4.35-5.54l-41.9-20.65c-1.33-.6-2.54-.96-3.87-.83z" stroke="#000" stroke-opacity="0" stroke-width="3.83" fill="#326ce5"/><path d="M2322.5 27680c-1.3.13-2.3.38-3.33.9l-44.23 21.8c-2.42 1.14-4.08 3.18-4.6 5.85l-10.95 49.08c-.52 2.3-.14 4.6 1.13 6.63.13.25.26.38.5.64l30.6 39.26c1.66 2.16 3.96 3.3 6.63 3.3h49.2c2.7 0 4.98-1.14 6.64-3.3l30.6-39.26c1.65-2.17 2.3-4.72 1.65-7.27l-10.96-49.08c-.53-2.67-2.18-4.7-4.6-5.86l-44.24-21.8c-1.4-.65-2.67-1.03-4.07-.9zm0 3.44c1.4-.13 2.53.13 3.8.77l42.07 20.66c2.17 1.14 3.7 3.06 4.34 5.6l10.33 46.4c.5 2.55 0 4.85-1.53 6.9l-29.06 37.2c-1.53 2.05-3.7 3.2-6.25 3.2h-46.66c-2.55 0-4.72-1.15-6.25-3.2l-29.07-37.2c-.13-.14-.26-.4-.38-.65-1.28-1.9-1.66-3.94-1.15-6.23l10.33-46.4c.63-2.55 2.03-4.47 4.33-5.6l42.07-20.66c1.02-.5 1.9-.76 3.06-.9z" stroke="#000" stroke-opacity="0" stroke-width="3.83" fill="#fff"/><path d="M2316.52 27788.42c0 3.8-1.3 5.7-3.88 5.7-1.62 0-2.7-.64-3.27-1.9h-.04c.02.05.03.6.03 1.7v4.25h-1.75v-12.92c0-1.12 0-1.85-.05-2.22h1.7l.02.3.05.76c.02.33.02.56.02.68h.04c.32-.66.73-1.15 1.24-1.46.5-.32 1.18-.47 2.03-.47 1.3 0 2.26.44 2.9 1.35.65.88.97 2.3.97 4.22zm-1.84.03c0-1.5-.2-2.58-.6-3.23-.4-.66-1.02-.98-1.88-.98-.7 0-1.24.15-1.63.46-.4.3-.7.77-.9 1.4-.2.64-.3 1.48-.3 2.5 0 1.43.22 2.47.66 3.15.44.67 1.15 1 2.15 1 .87 0 1.5-.3 1.9-.97.4-.66.6-1.76.6-3.33zM2327.62 27788.46c0 1.9-.4 3.32-1.2 4.25-.82.94-2 1.4-3.55 1.4-1.54 0-2.7-.48-3.5-1.44-.77-.98-1.16-2.37-1.16-4.2 0-3.75 1.58-5.62 4.73-5.62 1.6 0 2.8.46 3.55 1.38.76.9 1.14 2.33 1.14 4.24zm-1.84 0c0-1.5-.22-2.6-.65-3.26-.43-.68-1.15-1.02-2.17-1.02-1.03 0-1.77.34-2.23 1.04-.45.68-.7 1.77-.7 3.24 0 1.43.24 2.5.7 3.23.44.7 1.16 1.06 2.12 1.06 1.05 0 1.8-.33 2.25-1.03.45-.7.68-1.8.68-3.27zM2336.46 27792.15c-.32.7-.75 1.2-1.3 1.5-.53.3-1.2.45-1.98.45-1.33 0-2.32-.47-2.94-1.4-.62-.9-.94-2.3-.94-4.18 0-3.8 1.3-5.68 3.88-5.68.8 0 1.46.15 2 .45.53.3.96.78 1.28 1.43h.02l-.02-1.2v-4.52h1.75v12.66c0 1.13.04 1.88.07 2.25h-1.68c-.02-.1-.04-.36-.07-.75l-.03-1zm-5.32-3.7c0 1.53.2 2.62.6 3.27.38.66 1 1 1.9 1 .98 0 1.7-.37 2.15-1.08.44-.7.66-1.8.66-3.3 0-1.44-.22-2.5-.67-3.16-.46-.66-1.17-1-2.16-1-.88 0-1.5.34-1.9 1.02-.4.66-.6 1.75-.6 3.26z" stroke="#000" stroke-opacity="0" fill="#fff"/><path d="M2297.28 27722.7l25.6-7.65 25.57 7.65-25.58 7.65zM2297.28 27725.63v28.04l23.84 13.63.12-34.34zM2348.45 27725.63v28.04l-23.84 13.63-.1-34.34z" stroke="#000" stroke-opacity="0" stroke-width="3.77" fill="#fff"/><use xlink:href="#r" transform="matrix(1,0,0,1,2229.131488732532,27816.470911919794) translate(78 14.4)"/><path d="M3230.53 27932H3039.6a5 5 0 0 1-5-5v-90.53a5 5 0 0 0-5-5h-171.83" stroke="#1071e5" stroke-width="3" fill="none"/><path d="M3231.7 27933.47h-1.2v-2.94h1.86z" stroke="#1071e5" stroke-width=".05" fill="#1071e5"/><path d="M2842 27831.47l14.27-4.63v9.27z" stroke="#1071e5" stroke-width="3" fill="#1071e5"/><path d="M3288.52 27714.64c-1.13.1-2.04.34-2.95.8l-39.45 19.43c-2.16 1.03-3.64 2.84-4.1 5.23l-9.77 43.76c-.45 2.05-.1 4.1 1.03 5.9.1.24.22.36.45.58l27.28 35c1.5 1.94 3.54 2.97 5.93 2.97h43.87c2.4 0 4.44-1 5.9-2.95l27.3-35c1.47-1.94 2.04-4.2 1.47-6.6l-9.77-43.65c-.46-2.4-1.93-4.2-4.1-5.23l-39.44-19.44c-1.25-.56-2.4-.9-3.64-.8z" stroke="#000" stroke-opacity="0" stroke-width="3.83" fill="#326ce5"/><path d="M3288.5 27711.47c-1.2.12-2.16.36-3.1.84l-41.66 20.53c-2.27 1.08-3.83 3-4.3 5.52l-10.34 46.2c-.47 2.16-.1 4.32 1.1 6.24.1.23.23.35.47.6l28.8 36.95c1.56 2.04 3.72 3.12 6.24 3.12h46.33c2.5 0 4.67-1.08 6.23-3.12l28.8-36.96c1.57-2.05 2.16-4.45 1.57-6.85l-10.33-46.2c-.48-2.52-2.04-4.44-4.32-5.52l-41.64-20.52c-1.32-.6-2.52-.95-3.84-.83zm0 3.24c1.32-.1 2.4.13 3.6.73l39.6 19.44c2.05 1.08 3.5 2.88 4.1 5.28l9.7 43.68c.5 2.4 0 4.56-1.43 6.48l-27.37 35.05c-1.43 1.92-3.47 3-5.88 3h-43.9c-2.4 0-4.45-1.08-5.9-3l-27.36-35.04c-.1-.1-.23-.35-.36-.6-1.2-1.8-1.56-3.7-1.08-5.87l9.73-43.68c.6-2.4 1.9-4.2 4.08-5.28l39.6-19.44c.95-.48 1.8-.72 2.88-.84z" stroke="#000" stroke-opacity="0" stroke-width="3.83" fill="#fff"/><path d="M3279.1 27813.54c0 1.36.22 2.36.64 3.02.4.66 1.04.98 1.88.98.6 0 1.07-.16 1.46-.5.4-.32.65-.82.74-1.5l1.66.1c-.13 1-.53 1.78-1.22 2.36-.68.6-1.54.88-2.6.88-1.4 0-2.45-.44-3.18-1.34-.72-.92-1.1-2.23-1.1-3.97 0-1.72.38-3.03 1.1-3.93.74-.9 1.8-1.36 3.16-1.36 1.02 0 1.86.28 2.53.82.67.54 1.1 1.28 1.26 2.24l-1.7.12c-.08-.56-.3-1.02-.65-1.34-.35-.34-.84-.5-1.48-.5-.88 0-1.5.3-1.9.9-.4.6-.6 1.6-.6 3.02zM3293.02 27818.7v-6.5c0-.97-.14-1.66-.4-2.03-.26-.38-.73-.57-1.42-.57-.7 0-1.25.28-1.66.83-.42.55-.6 1.33-.6 2.34v5.93h-1.66v-8.04c0-1.2 0-1.92-.05-2.2h1.55c0 .04 0 .13.03.27l.02.48.04 1.02h.03c.34-.73.75-1.23 1.2-1.5.47-.3 1.02-.43 1.68-.43.75 0 1.35.14 1.8.44.42.32.72.8.9 1.48h.02c.34-.7.76-1.17 1.24-1.48.5-.3 1.08-.45 1.77-.45 1 0 1.74.27 2.2.83.46.56.68 1.48.68 2.76v6.8h-1.63v-6.5c0-.97-.13-1.66-.4-2.03-.26-.38-.73-.57-1.4-.57-.74 0-1.3.28-1.7.83-.4.55-.6 1.33-.6 2.34v5.93z" stroke="#000" stroke-opacity="0" fill="#fff"/><path d="M3277.85 27743.84v5.44h38.75v-5.44zM3261.13 27743.84v5.44h9.7v-5.44zM3291.94 27758.36v5.43h24.67v-5.44z" stroke="#000" stroke-opacity="0" stroke-width="3.77" fill="#fff"/><path d="M3275.2 27758.36v5.43h9.72v-5.44zM3291.94 27772.88v5.43h24.67v-5.42zM3275.2 27772.88v5.43h9.72v-5.42zM3277.85 27787.38v5.43h38.75v-5.42zM3261.13 27787.38v5.43h9.7v-5.42z" stroke="#000" stroke-opacity="0" stroke-width="2.99" fill="#fff"/><use xlink:href="#x" transform="matrix(1,0,0,1,3198.86528,27840.470911919794) translate(35.099999999999994 14.4)"/><path d="M2619.75 28925.3h98.72a5 5 0 0 0 5-5v-946.1" stroke="#1071e5" stroke-width="4" fill="none"/><path d="M2619.8 28927.3h-1.6l-.9-3.96h2.5z" stroke="#1071e5" stroke-width=".05" fill="#1071e5"/><path d="M2723.47 27957.94l4.64 14.27h-9.26z" stroke="#1071e5" stroke-width="4" fill="#1071e5"/><path d="M3288.52 27554.1c-1.13.12-2.04.35-2.95.8l-39.45 19.44c-2.16 1.03-3.64 2.84-4.1 5.23l-9.77 43.76c-.45 2.05-.1 4.1 1.03 5.9.1.24.22.36.45.58l27.28 35.02c1.5 1.94 3.54 2.96 5.93 2.96h43.87c2.4 0 4.44-1.02 5.9-2.96l27.3-35c1.47-1.94 2.04-4.2 1.47-6.6l-9.77-43.65c-.46-2.4-1.93-4.2-4.1-5.23l-39.44-19.44c-1.25-.56-2.4-.9-3.64-.8z" stroke="#000" stroke-opacity="0" stroke-width="3.83" fill="#326ce5"/><path d="M3288.5 27550.94c-1.2.12-2.16.36-3.1.84l-41.66 20.52c-2.27 1.08-3.83 3-4.3 5.52l-10.34 46.2c-.47 2.16-.1 4.32 1.1 6.24.1.24.23.36.47.6l28.8 36.96c1.56 2.04 3.72 3.12 6.24 3.12h46.33c2.5 0 4.67-1.08 6.23-3.12l28.8-36.96c1.57-2.04 2.16-4.44 1.57-6.84l-10.33-46.2c-.48-2.52-2.04-4.44-4.32-5.52l-41.64-20.52c-1.32-.6-2.52-.96-3.84-.84zm0 3.24c1.32-.12 2.4.12 3.6.72l39.6 19.44c2.05 1.08 3.5 2.88 4.1 5.28l9.7 43.68c.5 2.4 0 4.56-1.43 6.48l-27.37 35.04c-1.43 1.92-3.47 3-5.88 3h-43.9c-2.4 0-4.45-1.08-5.9-3l-27.36-35.04c-.1-.12-.23-.36-.36-.6-1.2-1.8-1.56-3.72-1.08-5.88l9.73-43.68c.6-2.4 1.9-4.2 4.08-5.28l39.6-19.44c.95-.48 1.8-.72 2.88-.84z" stroke="#000" stroke-opacity="0" stroke-width="3.83" fill="#fff"/><path d="M3291 27597.4v5.44h25.6v-5.43zM3277.85 27582.9v5.43h38.75v-5.44zM3261.13 27582.9v5.43h9.7v-5.44zM3291.93 27611.9v5.46h24.67v-5.45zM3277.85 27626.43v5.44h38.75v-5.44zM3261.13 27626.43v5.44h9.7v-5.44z" stroke="#000" stroke-opacity="0" stroke-width="3.77" fill="#fff"/><path d="M3292.67 27618.13c0 2.1-1.65 3.8-3.7 3.8-2.03 0-3.68-1.7-3.68-3.8 0-2.1 1.64-3.8 3.68-3.8s3.7 1.7 3.7 3.8z" stroke="#000" stroke-opacity="0" stroke-width="3.77" fill="#326ce5"/><path d="M3274.43 27601.72l6.65.1c2.5-10.62 14.5-8.64 15.85.3l6.53-.4c-2.1-17.37-26.2-19.9-28.7-1.85z" stroke="#000" stroke-opacity="0" stroke-width="3.77" fill="#fff"/><path d="M3288.84 27586.86c-8.75 0-15.9 6.87-15.9 15.4 2.5-.04 7.9.12 8.77 0 0-3.45 3.13-6.35 7.14-6.35 4 0 7.12 2.9 7.12 6.35 1.53.06 7.92-.3 8.78 0 0-8.52-7.16-15.4-15.9-15.4zm0 1.8c7.47 0 13.2 5.7 13.77 12.7h-5.3c-.54-4.06-4-7.26-8.46-7.26-4.45 0-7.92 3.2-8.46 7.26h-5.28c.54-7 6.26-12.7 13.74-12.7z" stroke="#000" stroke-opacity="0" stroke-width="3.77" fill="#326ce5"/><path d="M3269.75 27602.4h37.8v24.26h-37.8v-24.25z" stroke="#000" stroke-opacity="0" stroke-width="3.77" fill="#fff"/><path d="M3269.43 27601.12v26.9h39.14v-26.9zm1.77 1.83h35.6v23.24h-35.6z" stroke="#000" stroke-opacity="0" stroke-width="3.77" fill="#326ce5"/><path d="M3271.67 27654.5c0 .97-.35 1.7-1.07 2.24-.7.52-1.68.78-2.96.78-1.23 0-2.18-.2-2.86-.62-.66-.43-1.1-1.08-1.3-1.97l1.46-.3c.14.56.43.96.87 1.22.45.26 1.06.38 1.84.38.85 0 1.45-.13 1.84-.4.4-.26.6-.67.6-1.2 0-.4-.15-.72-.42-.98-.27-.24-.7-.45-1.3-.6l-1.18-.34c-.95-.24-1.63-.5-2.03-.73-.4-.24-.7-.54-.93-.9-.23-.33-.34-.76-.34-1.26 0-.92.32-1.63.96-2.1.65-.5 1.6-.75 2.83-.75 1.1 0 1.95.2 2.6.6.65.4 1.05 1.03 1.23 1.9l-1.5.2c-.08-.46-.33-.8-.73-1.05-.4-.24-.93-.36-1.6-.36-.75 0-1.3.1-1.66.35-.34.22-.52.57-.52 1.05 0 .28.07.52.22.7.15.2.36.36.65.5.3.13.9.3 1.82.54.87.2 1.5.42 1.9.62.37.2.67.4.9.64.22.23.4.5.52.8.1.3.17.66.17 1.05zM3274.88 27652.58c0 1.17.23 2.08.7 2.72.47.63 1.16.95 2.06.95.72 0 1.3-.15 1.72-.44.43-.3.72-.66.87-1.12l1.46.43c-.6 1.62-1.95 2.42-4.06 2.42-1.47 0-2.6-.44-3.35-1.34-.78-.9-1.16-2.25-1.16-4.02 0-1.7.38-3 1.15-3.9.75-.9 1.86-1.34 3.28-1.34 2.92 0 4.37 1.8 4.37 5.43v.23zm5.36-1.3c-.08-1.08-.35-1.87-.8-2.35-.43-.5-1.07-.75-1.88-.75-.8 0-1.45.28-1.9.83-.48.56-.73 1.3-.76 2.28zM3285.32 27652.18c0 1.36.2 2.37.62 3.02.4.66 1.05.98 1.88.98.6 0 1.08-.16 1.46-.5.4-.32.65-.82.74-1.5l1.67.1c-.14 1-.54 1.78-1.23 2.37-.68.58-1.55.88-2.6.88-1.4 0-2.45-.45-3.18-1.35-.74-.9-1.1-2.23-1.1-3.97 0-1.7.36-3.02 1.1-3.92.72-.9 1.78-1.36 3.14-1.36 1.02 0 1.87.28 2.53.82.67.54 1.1 1.28 1.26 2.24l-1.7.12c-.08-.56-.3-1-.64-1.34-.36-.34-.86-.5-1.5-.5-.87 0-1.5.3-1.9.9-.4.6-.58 1.6-.58 3.02zM3293.5 27657.33v-7.84c0-.73-.03-1.52-.07-2.4h1.56l.07 2.1h.03c.26-.87.57-1.48.9-1.8.35-.32.83-.48 1.45-.48.22 0 .45.03.68.1v1.56c-.23-.07-.52-.1-.88-.1-.7 0-1.2.3-1.57.92-.36.6-.54 1.47-.54 2.6v5.33zM3301 27652.58c0 1.17.22 2.08.7 2.72.46.63 1.14.95 2.05.95.72 0 1.3-.15 1.72-.44.43-.3.72-.66.87-1.12l1.45.43c-.6 1.62-1.94 2.42-4.05 2.42-1.47 0-2.6-.44-3.35-1.34-.77-.9-1.15-2.25-1.15-4.02 0-1.7.38-3 1.15-3.9.76-.9 1.86-1.34 3.3-1.34 2.9 0 4.36 1.8 4.36 5.43v.23zm5.35-1.3c-.1-1.08-.35-1.87-.8-2.35-.43-.5-1.07-.75-1.9-.75-.8 0-1.42.28-1.9.83-.46.56-.7 1.3-.75 2.28zM3313.98 27657.26c-.54.15-1.1.22-1.67.22-1.3 0-1.97-.77-1.97-2.3v-6.84h-1.14v-1.23h1.2l.48-2.28h1.1v2.3h1.84v1.22h-1.84v6.46c0 .5.08.84.23 1.04.17.2.44.3.83.3.22 0 .53-.05.95-.14z" stroke="#000" stroke-opacity="0" fill="#fff"/><path d="M3292.7 27614.57c0 2.1-1.66 3.8-3.7 3.8s-3.7-1.7-3.7-3.8c0-2.1 1.66-3.8 3.7-3.8 2.03 0 3.7 1.7 3.7 3.8z" stroke="#000" stroke-opacity="0" stroke-width="3.77" fill="#326ce5"/><use xlink:href="#y" transform="matrix(1,0,0,1,3198.86528,27679.94182383959) translate(29.625 14.4)"/><path d="M3459.72 28882h-22.77v18.2h22.77v9h-22.77v18.2h22.77v9.2h-22.77v18.2h22.77v9h-22.77v18.2h22.77v9h-22.77v13.8c0 2.4-2 4.4-4.4 4.4h-13.77v22.8h-9v-22.8h-18.17v22.8h-8.97v-22.8h-18.18v22.8h-9.18v-22.8h-18.18v22.8h-9v-22.8h-18.17v22.8h-9v-22.8h-13.77c-2.4 0-4.4-2-4.4-4.4v-13.8H3260v-9h22.76v-18.2H3260v-9h22.76v-18.2H3260v-9.2h22.76v-18.2H3260v-9h22.76v-18.2H3260v-9h22.76v-13.8c0-2.4 2-4.4 4.4-4.4h13.78v-22.8h9v22.8h18.16v-22.8h9v22.8h18.16v-22.8h9.2v22.8h18.17v-22.8h8.98v22.8h18.2v-22.8h8.98v22.8h13.78c2.4 0 4.4 2 4.4 4.4v13.8h22.76zm-167.97 118.2h136.22v-136.4h-136.22z" stroke="#000" stroke-opacity="0" fill="#d45b07"/><use xlink:href="#z" transform="matrix(1,0,0,1,3229.9939757496186,29041) translate(36.70987654320987 24.888888888888893)"/><use xlink:href="#A" transform="matrix(1,0,0,1,3229.9939757496186,29041) translate(105.75925925925927 24.888888888888893)"/><path d="M2608.3 27831.47h-108.1a5 5 0 0 0-5 5v62.26a5 5 0 0 1-5 5h-89" stroke="#1071e5" stroke-width="3" fill="none"/><path d="M2609.47 27832.95h-1.2v-2.95h1.85z" stroke="#1071e5" stroke-width=".05" fill="#1071e5"/><path d="M2385.44 27903.74l14.27-4.64v9.27z" stroke="#1071e5" stroke-width="3" fill="#1071e5"/><path d="M2608.3 27831.47H2501.5a5 5 0 0 1-5-5v-77.74a5 5 0 0 0-5-5h-87.66" stroke="#1071e5" stroke-width="3" fill="none"/><path d="M2609.47 27832.95h-1.2v-2.95h1.85z" stroke="#1071e5" stroke-width=".05" fill="#1071e5"/><path d="M2388.1 27743.74l14.26-4.64v9.27z" stroke="#1071e5" stroke-width="3" fill="#1071e5"/><path d="M937.24 29091h410.3a5 5 0 0 1 5 5v326.72a5 5 0 0 0 5 5h389.57" stroke="#000" stroke-width="4" fill="none"/><path d="M937.3 29092.97h-2.06v-3.94h2.05z" stroke="#000" stroke-width=".05"/><path d="M1763.38 29427.72l-14.27 4.64v-9.28z" stroke="#000" stroke-width="4"/><path d="M1836.38 28363.05h732.02a5 5 0 0 1 5 5v441.2" stroke="#000" stroke-width="4" fill="none"/><path d="M1836.43 28365.03h-2.05v-3.95h2.05z" stroke="#000" stroke-width=".05"/><path d="M2573.4 28825.53l-4.64-14.27h9.27z" stroke="#000" stroke-width="4"/><path d="M1836.38 28363.05h1518.48a5 5 0 0 1 5 5v441.2" stroke="#000" stroke-width="4" fill="none"/><path d="M1836.43 28365.03h-2.05v-3.95h2.05z" stroke="#000" stroke-width=".05"/><path d="M3359.86 28825.53l-4.64-14.27h9.27z" stroke="#000" stroke-width="4"/><path d="M2673.26 28882h-22.77v18.2h22.76v9h-22.77v18.2h22.76v9.2h-22.77v18.2h22.76v9h-22.77v18.2h22.76v9h-22.77v13.8c0 2.4-2 4.4-4.4 4.4h-13.78v22.8h-9v-22.8h-18.17v22.8h-9v-22.8H2578v22.8h-9.2v-22.8h-18.17v22.8h-9v-22.8h-18.17v22.8h-8.98v-22.8h-13.78c-2.4 0-4.4-2-4.4-4.4v-13.8h-22.77v-9h22.77v-18.2h-22.77v-9h22.77v-18.2h-22.77v-9.2h22.77v-18.2h-22.77v-9h22.77v-18.2h-22.77v-9h22.77v-13.8c0-2.4 2-4.4 4.4-4.4h13.78v-22.8h8.98v22.8h18.18v-22.8h9v22.8h18.16v-22.8h9.2v22.8h18.16v-22.8h9v22.8h18.17v-22.8h9v22.8h13.77c2.4 0 4.4 2 4.4 4.4v13.8h22.76zm-167.97 118.2h136.2v-136.4h-136.2z" stroke="#000" stroke-opacity="0" fill="#d45b07"/><use xlink:href="#z" transform="matrix(1,0,0,1,2443.5314887325867,29041) translate(36.70987654320987 24.888888888888893)"/><use xlink:href="#A" transform="matrix(1,0,0,1,2443.5314887325867,29041) translate(105.75925925925927 24.888888888888893)"/><path d="M2574.57 28882.4c-.86.08-1.55.25-2.24.6l-29.78 14.67c-1.64.77-2.75 2.15-3.1 3.95l-7.38 33.05c-.34 1.55-.08 3.1.77 4.47.1.17.18.25.35.42l20.6 26.44c1.1 1.46 2.65 2.24 4.46 2.24h33.13c1.8 0 3.34-.78 4.46-2.24l20.6-26.44c1.12-1.46 1.55-3.17 1.12-4.98l-7.38-32.96c-.35-1.8-1.46-3.18-3.1-3.95l-29.8-14.68c-.93-.44-1.8-.7-2.73-.6z" stroke="#000" stroke-opacity="0" stroke-width="0" fill="#326ce5"/><path d="M2574.55 28880c-.9.1-1.63.27-2.35.63l-31.45 15.5c-1.72.82-2.9 2.27-3.26 4.17l-7.8 34.9c-.37 1.62-.1 3.25.8 4.7.1.18.2.27.37.46l21.75 27.9c1.18 1.55 2.8 2.37 4.7 2.37h35c1.9 0 3.53-.82 4.7-2.36l21.76-27.9c1.18-1.55 1.63-3.37 1.18-5.18l-7.8-34.9c-.36-1.9-1.54-3.35-3.26-4.17l-31.45-15.5c-1-.45-1.9-.72-2.9-.63zm0 2.36c1 0 1.82.18 2.72.63l29.9 14.67c1.55.82 2.64 2.18 3.1 4l7.33 32.98c.36 1.8 0 3.44-1.1 4.9l-20.65 26.45c-1.1 1.45-2.63 2.27-4.44 2.27h-33.16c-1.8 0-3.35-.82-4.44-2.27l-20.66-26.46c-.1-.1-.18-.27-.28-.45-.9-1.37-1.17-2.82-.8-4.45l7.33-33c.44-1.8 1.44-3.16 3.07-3.98l29.9-14.68c.73-.37 1.37-.55 2.18-.64z" stroke="#000" stroke-opacity="0" stroke-width="0" fill="#fff"/><path d="M2574.72 28899.87c-.7 0-20.04 9.77-20.3 10.28-.6 1.22-5.03 22.2-4.78 22.64.15.25 3.33 4.42 7.05 9.2l6.8 8.76H2585.8l7.1-9.16 7.1-9.1-2.46-11.26c-1.36-6.16-2.62-11.35-2.72-11.45-.35-.37-19.7-9.93-20.1-9.93zm1 4.88l4.55 1.38-4.54 1.37-4.58-1.37zm-4.57 1.94l4.28 1.26v6.16l-4.28-2.45zm9.1 0v4.97l-4.22 2.45v-6.16zm-11.02 8.33l4.6 1.38-4.6 1.33-4.53-1.32zm11.13 0l4.54 1.38-4.54 1.33-4.58-1.32zm-15.66 1.9l4.23 1.3v6.12l-4.23-2.45zm9.12 0v4.97l-4.28 2.45v-6.1zm1.96 0l4.28 1.3-.05 6.12-4.22-2.45zm9.12 0v4.97l-4.23 2.45-.05-6.1zm-17.33 7.82c1.36.06.3 1.48 1.87 2.24 1.66.76 1.96-1.23 3.02.3 1 1.53-.9 1.17-.8 3.05.14 1.83 2.06 1.12 1.25 2.85-.8 1.68-1.4-.25-2.9.82-1.52 1.06 0 2.4-1.82 2.54-1.82.15-.5-1.42-2.17-2.24-1.6-.8-1.95 1.22-3-.3-1.02-1.58.95-1.17.8-3.06-.16-1.83-2.02-1.17-1.26-2.85.8-1.67 1.46.27 2.97-.8 1.47-1.07-.04-2.4 1.77-2.55h.3zm11.74 1.9c2.42.04.1 2.38 2.32 3.45 2.22 1.02 2.32-2.4 3.98-.56 1.67 1.83-1.6 1.78-.7 4.12.86 2.34 3.27.05 3.17 2.55-.05 2.5-2.32.06-3.32 2.35-1 2.3 2.26 2.44.5 4.17-1.76 1.68-1.7-1.68-3.98-.76-2.26.86-.05 3.35-2.47 3.3-2.4-.1-.05-2.44-2.26-3.46-2.22-1-2.37 2.35-4.03.5-1.65-1.77 1.62-1.72.76-4.06-.9-2.34-3.27-.05-3.22-2.54.05-2.55 2.32-.1 3.32-2.4s-2.26-2.4-.5-4.12c1.76-1.73 1.7 1.63 3.98.76 2.27-.9.05-3.35 2.47-3.3zm-11.63 1.3c-1.46 0-2.67 1.23-2.67 2.76 0 1.53 1.2 2.76 2.67 2.76 1.5 0 2.67-1.22 2.67-2.75 0-1.52-1.16-2.74-2.67-2.74zm11.4 2.5c-2.93 0-5.35 2.45-5.35 5.5 0 3 2.42 5.5 5.34 5.5 2.97 0 5.34-2.5 5.34-5.5 0-3.05-2.37-5.5-5.34-5.5z" stroke="#eee" stroke-width="0" fill="#fff"/><use xlink:href="#B" transform="matrix(1,0,0,1,2499.512225248215,28979.625558581498) translate(56.12037037037037 13.61111111111111)"/><path d="M1956.92 29427.72h611.48a5 5 0 0 0 5-5v-367.98" stroke="#000" stroke-width="4" fill="none"/><path d="M1956.97 29429.7h-2.1l.05-1.98-.03-1.98h2.07z" stroke="#000" stroke-width=".05"/><path d="M2573.4 29038.47l4.63 14.27h-9.27z" stroke="#000" stroke-width="4"/><path d="M1956.92 29427.72h1397.94a5 5 0 0 0 5-5v-367.98" stroke="#000" stroke-width="4" fill="none"/><path d="M1956.97 29429.7h-2.1l.05-1.98-.03-1.98h2.07z" stroke="#000" stroke-width=".05"/><path d="M3359.86 29038.47l4.63 14.27h-9.28z" stroke="#000" stroke-width="4"/><path d="M3360.4 28882.4c-.87.08-1.56.25-2.24.6l-29.8 14.67c-1.62.77-2.74 2.15-3.08 3.95l-7.4 33.05c-.33 1.55-.07 3.1.8 4.47.07.17.16.25.33.42l20.6 26.44c1.13 1.46 2.68 2.24 4.48 2.24h33.14c1.8 0 3.35-.78 4.46-2.24l20.6-26.44c1.12-1.46 1.55-3.17 1.12-4.98l-7.38-32.96c-.34-1.8-1.46-3.18-3.1-3.95l-29.78-14.68c-.95-.44-1.8-.7-2.75-.6z" stroke="#000" stroke-opacity="0" stroke-width="0" fill="#326ce5"/><path d="M3360.38 28880c-.9.1-1.64.27-2.36.63l-31.45 15.5c-1.72.82-2.9 2.27-3.26 4.17l-7.78 34.9c-.36 1.62-.1 3.25.8 4.7.1.18.2.27.38.46l21.75 27.9c1.17 1.55 2.8 2.37 4.7 2.37h35c1.9 0 3.52-.82 4.7-2.36l21.75-27.9c1.18-1.55 1.63-3.37 1.18-5.18l-7.8-34.9c-.36-1.9-1.53-3.35-3.26-4.17l-31.44-15.5c-1-.45-1.9-.72-2.9-.63zm0 2.36c1 0 1.8.18 2.72.63l29.9 14.67c1.54.82 2.63 2.18 3.08 4l7.34 32.98c.37 1.8 0 3.44-1.08 4.9l-20.67 26.45c-1.08 1.45-2.62 2.27-4.44 2.27h-33.17c-1.8 0-3.35-.82-4.44-2.27l-20.66-26.46c-.1-.1-.18-.27-.27-.45-.92-1.37-1.2-2.82-.83-4.45l7.34-33c.47-1.8 1.46-3.16 3.1-3.98l29.9-14.68c.73-.37 1.36-.55 2.18-.64z" stroke="#000" stroke-opacity="0" stroke-width="0" fill="#fff"/><path d="M3360.55 28899.87c-.7 0-20.05 9.77-20.3 10.28-.6 1.22-5.04 22.2-4.78 22.64.15.25 3.32 4.42 7.05 9.2l6.8 8.76H3371.63l7.1-9.16 7.1-9.1-2.47-11.26c-1.36-6.16-2.62-11.35-2.72-11.45-.35-.37-19.7-9.93-20.1-9.93zm1 4.88l4.54 1.38-4.55 1.37-4.58-1.37zm-4.58 1.94l4.28 1.26v6.16l-4.28-2.45zm9.12 0v4.97l-4.24 2.45v-6.16zm-11.04 8.33l4.58 1.38-4.58 1.33-4.53-1.32zm11.13 0l4.52 1.38-4.53 1.33-4.6-1.32zm-15.67 1.9l4.23 1.3v6.12l-4.24-2.45zm9.1 0v4.97l-4.27 2.45v-6.1zm1.98 0l4.3 1.3-.06 6.12-4.23-2.45zm9.12 0v4.97l-4.23 2.45-.06-6.1zm-17.32 7.82c1.36.06.3 1.48 1.86 2.24 1.66.76 1.96-1.23 3.02.3 1 1.53-.9 1.17-.8 3.05.15 1.83 2.06 1.12 1.26 2.85-.8 1.68-1.4-.25-2.93.82-1.5 1.06 0 2.4-1.8 2.54-1.8.15-.5-1.42-2.16-2.24-1.62-.8-1.97 1.22-3.03-.3-1-1.58.97-1.17.82-3.06-.15-1.83-2.02-1.17-1.26-2.85.8-1.67 1.46.27 2.97-.8 1.46-1.07-.05-2.4 1.76-2.55h.3zm11.73 1.9c2.42.04.1 2.38 2.32 3.45 2.2 1.02 2.32-2.4 3.98-.56 1.66 1.83-1.6 1.78-.7 4.12.85 2.34 3.27.05 3.16 2.55-.06 2.5-2.32.06-3.33 2.35-1 2.3 2.27 2.44.5 4.17-1.76 1.68-1.7-1.68-3.97-.76-2.27.86-.05 3.35-2.47 3.3-2.42-.1-.05-2.44-2.27-3.46-2.22-1-2.37 2.35-4.03.5-1.66-1.77 1.6-1.72.76-4.06-.92-2.34-3.3-.05-3.24-2.54.05-2.55 2.32-.1 3.33-2.4 1-2.3-2.28-2.4-.52-4.12 1.77-1.73 1.72 1.63 3.98.76 2.27-.9.05-3.35 2.47-3.3zm-11.63 1.3c-1.46 0-2.67 1.23-2.67 2.76 0 1.53 1.2 2.76 2.67 2.76 1.5 0 2.67-1.22 2.67-2.75 0-1.52-1.16-2.74-2.67-2.74zm11.38 2.5c-2.92 0-5.34 2.45-5.34 5.5 0 3 2.42 5.5 5.34 5.5 2.97 0 5.34-2.5 5.34-5.5 0-3.05-2.37-5.5-5.34-5.5z" stroke="#eee" stroke-width="0" fill="#fff"/><use xlink:href="#B" transform="matrix(1,0,0,1,3285.3358322783065,28979.625558581498) translate(56.12037037037037 13.61111111111111)"/><path d="M3315.72 28925.3h-587.25a5 5 0 0 1-5-5v-946.1" stroke="#1071e5" stroke-width="4" fill="none"/><path d="M3317.28 28927.3h-1.6v-3.96h2.5z" stroke="#1071e5" stroke-width=".05" fill="#1071e5"/><path d="M2723.47 27957.94l4.64 14.27h-9.26z" stroke="#1071e5" stroke-width="4" fill="#1071e5"/><path d="M924.54 29008c5.87 0 10.66 4.65 10.66 10.13v98.1c0 5.65-4.8 10.13-10.66 10.13H768.26c-5.87 0-10.66-4.48-10.66-10.13v-98.1c0-5.48 4.8-10.13 10.66-10.13zm2.5 108.23v-98.1c0-1.33-1.07-2.5-2.5-2.5H768.26c-1.42 0-2.5 1.17-2.5 2.5v98.1c0 1.33 1.08 2.5 2.5 2.5h156.28c1.43 0 2.5-1.17 2.5-2.5zm-11.9-94.78c3.2 0 5.67 2.5 5.67 5.47v80.5c0 3-2.47 5.5-5.67 5.5H777.5c-3.03 0-5.7-2.5-5.7-5.5v-80.5c0-2.98 2.67-5.47 5.7-5.47zm-135.16 83.83h132.84v-76.03H779.98zm144.56 27.55c5.87 0 10.66 4.65 10.66 10.13v20.9c0 5.5-4.8 10.14-10.66 10.14H768.26c-5.87 0-10.66-4.65-10.66-10.13v-20.9c0-5.5 4.8-10.14 10.66-10.14zm2.5 31.04v-20.9c0-1.34-1.07-2.5-2.5-2.5H768.26c-1.42 0-2.5 1.16-2.5 2.5v20.9c0 1.33 1.08 2.5 2.5 2.5h156.28c1.43 0 2.5-1.17 2.5-2.5zm-6.05-14.1v7.46c0 1.66-1.43 3-3.2 3h-43.52c-1.77 0-3.2-1.34-3.2-3v-7.47c0-1.66 1.43-2.98 3.2-2.98h43.5c1.8 0 3.2 1.32 3.2 2.98z" stroke="#000" stroke-opacity="0" fill="#232f3d"/><path d="M757.64 29117.3v46.46l10.66 7.5 159.48-1.28 7.46-5.9v-145.96l-6.92-5.9-44.05-.5-117.92-.15-8.53 6.7z" stroke="#000" stroke-opacity="0" fill-opacity="0"/><g><use xlink:href="#C" transform="matrix(1,0,0,1,727.5999999999999,29183) translate(96.075 14.4)"/></g><path d="M3230.53 27771.47H3039.6a5 5 0 0 0-5 5v50a5 5 0 0 1-5 5h-171.83" stroke="#1071e5" stroke-width="3" fill="none"/><path d="M3231.7 27772.95h-1.2v-2.95h1.86z" stroke="#1071e5" stroke-width=".05" fill="#1071e5"/><path d="M2842 27831.47l14.27-4.63v9.27z" stroke="#1071e5" stroke-width="3" fill="#1071e5"/><path d="M3230.53 27610.94H3039.6a5 5 0 0 0-5 5v210.53a5 5 0 0 1-5 5h-171.83" stroke="#1071e5" stroke-width="3" fill="none"/><path d="M3231.7 27612.42h-1.2v-2.95h1.86z" stroke="#1071e5" stroke-width=".05" fill="#1071e5"/><path d="M2842 27831.47l14.27-4.63v9.27z" stroke="#1071e5" stroke-width="3" fill="#1071e5"/><path d="M2929.93 27500h-205.6a5 5 0 0 0-5 5v186.48" stroke="#1071e5" stroke-width="3" fill="none"/><path d="M2931.1 27501.47h-1.2v-2.94h1.86z" stroke="#1071e5" stroke-width=".05" fill="#1071e5"/><path d="M2719.33 27707.25l-4.64-14.27h9.26z" stroke="#1071e5" stroke-width="3" fill="#1071e5"/><defs><path fill="#232f3e" d="M205 0l-28-72H64L36 0H1l101-248h38L239 0h-34zm-38-99l-47-123c-12 45-31 82-46 123h93" id="D"/><path fill="#232f3e" d="M266 0h-40l-56-210L115 0H75L2-248h35L96-30l15-64 43-154h32l59 218 59-218h35" id="E"/><path fill="#232f3e" d="M185-189c-5-48-123-54-124 2 14 75 158 14 163 119 3 78-121 87-175 55-17-10-28-26-33-46l33-7c5 56 141 63 141-1 0-78-155-14-162-118-5-82 145-84 179-34 5 7 8 16 11 25" id="F"/><g id="a"><use transform="matrix(0.08641975308641976,0,0,0.08641975308641976,0,0)" xlink:href="#D"/><use transform="matrix(0.08641975308641976,0,0,0.08641975308641976,19.61728395061729,0)" xlink:href="#E"/><use transform="matrix(0.08641975308641976,0,0,0.08641975308641976,48.91358024691358,0)" xlink:href="#F"/></g><path fill="#232f3e" d="M212-179c-10-28-35-45-73-45-59 0-87 40-87 99 0 60 29 101 89 101 43 0 62-24 78-52l27 14C228-24 195 4 139 4 59 4 22-46 18-125c-6-104 99-153 187-111 19 9 31 26 39 46" id="G"/><path fill="#232f3e" d="M24 0v-261h32V0H24" id="H"/><path fill="#232f3e" d="M100-194c62-1 85 37 85 99 1 63-27 99-86 99S16-35 15-95c0-66 28-99 85-99zM99-20c44 1 53-31 53-75 0-43-8-75-51-75s-53 32-53 75 10 74 51 75" id="I"/><path fill="#232f3e" d="M84 4C-5 8 30-112 23-190h32v120c0 31 7 50 39 49 72-2 45-101 50-169h31l1 190h-30c-1-10 1-25-2-33-11 22-28 36-60 37" id="J"/><path fill="#232f3e" d="M85-194c31 0 48 13 60 33l-1-100h32l1 261h-30c-2-10 0-23-3-31C134-8 116 4 85 4 32 4 16-35 15-94c0-66 23-100 70-100zm9 24c-40 0-46 34-46 75 0 40 6 74 45 74 42 0 51-32 51-76 0-42-9-74-50-73" id="K"/><g id="b"><use transform="matrix(0.08641975308641976,0,0,0.08641975308641976,0,0)" xlink:href="#G"/><use transform="matrix(0.08641975308641976,0,0,0.08641975308641976,22.38271604938272,0)" xlink:href="#H"/><use transform="matrix(0.08641975308641976,0,0,0.08641975308641976,29.20987654320988,0)" xlink:href="#I"/><use transform="matrix(0.08641975308641976,0,0,0.08641975308641976,46.49382716049383,0)" xlink:href="#J"/><use transform="matrix(0.08641975308641976,0,0,0.08641975308641976,63.777777777777786,0)" xlink:href="#K"/></g><path fill="#248814" d="M137 0h-34L2-248h35l83 218 83-218h36" id="L"/><path fill="#248814" d="M30-248c87 1 191-15 191 75 0 78-77 80-158 76V0H30v-248zm33 125c57 0 124 11 124-50 0-59-68-47-124-48v98" id="M"/><path fill="#248814" d="M212-179c-10-28-35-45-73-45-59 0-87 40-87 99 0 60 29 101 89 101 43 0 62-24 78-52l27 14C228-24 195 4 139 4 59 4 22-46 18-125c-6-104 99-153 187-111 19 9 31 26 39 46" id="N"/><g id="c"><use transform="matrix(0.06790123456790124,0,0,0.06790123456790124,0,0)" xlink:href="#L"/><use transform="matrix(0.06790123456790124,0,0,0.06790123456790124,16.296296296296298,0)" xlink:href="#M"/><use transform="matrix(0.06790123456790124,0,0,0.06790123456790124,32.592592592592595,0)" xlink:href="#N"/></g><path fill="#147eba" d="M233-177c-1 41-23 64-60 70L243 0h-38l-65-103H63V0H30v-248c88 3 205-21 203 71zM63-129c60-2 137 13 137-47 0-61-80-42-137-45v92" id="O"/><path fill="#147eba" d="M100-194c63 0 86 42 84 106H49c0 40 14 67 53 68 26 1 43-12 49-29l28 8c-11 28-37 45-77 45C44 4 14-33 15-96c1-61 26-98 85-98zm52 81c6-60-76-77-97-28-3 7-6 17-6 28h103" id="P"/><path fill="#147eba" d="M177-190C167-65 218 103 67 71c-23-6-38-20-44-43l32-5c15 47 100 32 89-28v-30C133-14 115 1 83 1 29 1 15-40 15-95c0-56 16-97 71-98 29-1 48 16 59 35 1-10 0-23 2-32h30zM94-22c36 0 50-32 50-73 0-42-14-75-50-75-39 0-46 34-46 75s6 73 46 73" id="Q"/><path fill="#147eba" d="M24-231v-30h32v30H24zM24 0v-190h32V0H24" id="R"/><path fill="#147eba" d="M100-194c62-1 85 37 85 99 1 63-27 99-86 99S16-35 15-95c0-66 28-99 85-99zM99-20c44 1 53-31 53-75 0-43-8-75-51-75s-53 32-53 75 10 74 51 75" id="S"/><path fill="#147eba" d="M117-194c89-4 53 116 60 194h-32v-121c0-31-8-49-39-48C34-167 62-67 57 0H25l-1-190h30c1 10-1 24 2 32 11-22 29-35 61-36" id="T"/><g id="d"><use transform="matrix(0.06790123456790124,0,0,0.06790123456790124,0,0)" xlink:href="#O"/><use transform="matrix(0.06790123456790124,0,0,0.06790123456790124,17.58641975308642,0)" xlink:href="#P"/><use transform="matrix(0.06790123456790124,0,0,0.06790123456790124,31.16666666666667,0)" xlink:href="#Q"/><use transform="matrix(0.06790123456790124,0,0,0.06790123456790124,44.74691358024692,0)" xlink:href="#R"/><use transform="matrix(0.06790123456790124,0,0,0.06790123456790124,50.111111111111114,0)" xlink:href="#S"/><use transform="matrix(0.06790123456790124,0,0,0.06790123456790124,63.69135802469136,0)" xlink:href="#T"/></g><path fill="#147eba" d="M87 75C49 33 22-17 22-94c0-76 28-126 65-167h31c-38 41-64 92-64 168S80 34 118 75H87" id="U"/><path fill="#147eba" d="M85 4C-2 5 27-109 22-190h50c7 57-23 150 33 157 60-5 35-97 40-157h50l1 190h-47c-2-12 1-28-3-38-12 25-28 42-61 42" id="V"/><path fill="#147eba" d="M137-138c1-29-70-34-71-4 15 46 118 7 119 86 1 83-164 76-172 9l43-7c4 19 20 25 44 25 33 8 57-30 24-41C81-84 22-81 20-136c-2-80 154-74 161-7" id="W"/><path fill="#147eba" d="M14-72v-43h91v43H14" id="X"/><path fill="#147eba" d="M185-48c-13 30-37 53-82 52C43 2 14-33 14-96s30-98 90-98c62 0 83 45 84 108H66c0 31 8 55 39 56 18 0 30-7 34-22zm-45-69c5-46-57-63-70-21-2 6-4 13-4 21h74" id="Y"/><path fill="#147eba" d="M133-34C117-15 103 5 69 4 32 3 11-16 11-54c-1-60 55-63 116-61 1-26-3-47-28-47-18 1-26 9-28 27l-52-2c7-38 36-58 82-57s74 22 75 68l1 82c-1 14 12 18 25 15v27c-30 8-71 5-69-32zm-48 3c29 0 43-24 42-57-32 0-66-3-65 30 0 17 8 27 23 27" id="Z"/><path fill="#147eba" d="M115-3C79 11 28 4 28-45v-112H4v-33h27l15-45h31v45h36v33H77v99c-1 23 16 31 38 25v30" id="aa"/><path fill="#147eba" d="M23 0v-37h61v-169l-59 37v-38l62-41h46v211h57V0H23" id="ab"/><path fill="#147eba" d="M33-261c38 41 65 92 65 168S71 34 33 75H2C39 34 66-17 66-93S39-220 2-261h31" id="ac"/><g id="e"><use transform="matrix(0.06790123456790124,0,0,0.06790123456790124,0,0)" xlink:href="#U"/><use transform="matrix(0.06790123456790124,0,0,0.06790123456790124,8.080246913580249,0)" xlink:href="#V"/><use transform="matrix(0.06790123456790124,0,0,0.06790123456790124,22.95061728395062,0)" xlink:href="#W"/><use transform="matrix(0.06790123456790124,0,0,0.06790123456790124,36.53086419753087,0)" xlink:href="#X"/><use transform="matrix(0.06790123456790124,0,0,0.06790123456790124,44.611111111111114,0)" xlink:href="#Y"/><use transform="matrix(0.06790123456790124,0,0,0.06790123456790124,58.19135802469136,0)" xlink:href="#Z"/><use transform="matrix(0.06790123456790124,0,0,0.06790123456790124,71.77160493827162,0)" xlink:href="#W"/><use transform="matrix(0.06790123456790124,0,0,0.06790123456790124,85.35185185185186,0)" xlink:href="#aa"/><use transform="matrix(0.06790123456790124,0,0,0.06790123456790124,93.43209876543212,0)" xlink:href="#X"/><use transform="matrix(0.06790123456790124,0,0,0.06790123456790124,101.51234567901237,0)" xlink:href="#ab"/><use transform="matrix(0.06790123456790124,0,0,0.06790123456790124,115.09259259259262,0)" xlink:href="#ac"/></g><path fill="#147eba" d="M30-248c87 1 191-15 191 75 0 78-77 80-158 76V0H30v-248zm33 125c57 0 124 11 124-50 0-59-68-47-124-48v98" id="ad"/><path fill="#147eba" d="M114-163C36-179 61-72 57 0H25l-1-190h30c1 12-1 29 2 39 6-27 23-49 58-41v29" id="ae"/><path fill="#147eba" d="M108 0H70L1-190h34L89-25l56-165h34" id="af"/><path fill="#147eba" d="M141-36C126-15 110 5 73 4 37 3 15-17 15-53c-1-64 63-63 125-63 3-35-9-54-41-54-24 1-41 7-42 31l-33-3c5-37 33-52 76-52 45 0 72 20 72 64v82c-1 20 7 32 28 27v20c-31 9-61-2-59-35zM48-53c0 20 12 33 32 33 41-3 63-29 60-74-43 2-92-5-92 41" id="ag"/><path fill="#147eba" d="M59-47c-2 24 18 29 38 22v24C64 9 27 4 27-40v-127H5v-23h24l9-43h21v43h35v23H59v120" id="ah"/><g id="f"><use transform="matrix(0.05555555555555555,0,0,0.05555555555555555,0,0)" xlink:href="#ad"/><use transform="matrix(0.05555555555555555,0,0,0.05555555555555555,13.333333333333332,0)" xlink:href="#ae"/><use transform="matrix(0.05555555555555555,0,0,0.05555555555555555,19.944444444444443,0)" xlink:href="#R"/><use transform="matrix(0.05555555555555555,0,0,0.05555555555555555,24.333333333333332,0)" xlink:href="#af"/><use transform="matrix(0.05555555555555555,0,0,0.05555555555555555,34.33333333333333,0)" xlink:href="#ag"/><use transform="matrix(0.05555555555555555,0,0,0.05555555555555555,45.44444444444444,0)" xlink:href="#ah"/><use transform="matrix(0.05555555555555555,0,0,0.05555555555555555,51,0)" xlink:href="#P"/></g><path fill="#147eba" d="M185-189c-5-48-123-54-124 2 14 75 158 14 163 119 3 78-121 87-175 55-17-10-28-26-33-46l33-7c5 56 141 63 141-1 0-78-155-14-162-118-5-82 145-84 179-34 5 7 8 16 11 25" id="ai"/><path fill="#147eba" d="M84 4C-5 8 30-112 23-190h32v120c0 31 7 50 39 49 72-2 45-101 50-169h31l1 190h-30c-1-10 1-25-2-33-11 22-28 36-60 37" id="aj"/><path fill="#147eba" d="M115-194c53 0 69 39 70 98 0 66-23 100-70 100C84 3 66-7 56-30L54 0H23l1-261h32v101c10-23 28-34 59-34zm-8 174c40 0 45-34 45-75 0-40-5-75-45-74-42 0-51 32-51 76 0 43 10 73 51 73" id="ak"/><g id="g"><use transform="matrix(0.05555555555555555,0,0,0.05555555555555555,0,0)" xlink:href="#ai"/><use transform="matrix(0.05555555555555555,0,0,0.05555555555555555,13.333333333333332,0)" xlink:href="#aj"/><use transform="matrix(0.05555555555555555,0,0,0.05555555555555555,24.444444444444443,0)" xlink:href="#ak"/><use transform="matrix(0.05555555555555555,0,0,0.05555555555555555,35.55555555555556,0)" xlink:href="#T"/><use transform="matrix(0.05555555555555555,0,0,0.05555555555555555,46.66666666666667,0)" xlink:href="#P"/><use transform="matrix(0.05555555555555555,0,0,0.05555555555555555,57.777777777777786,0)" xlink:href="#ah"/></g><path fill="#248814" d="M84 4C-5 8 30-112 23-190h32v120c0 31 7 50 39 49 72-2 45-101 50-169h31l1 190h-30c-1-10 1-25-2-33-11 22-28 36-60 37" id="al"/><path fill="#248814" d="M115-194c53 0 69 39 70 98 0 66-23 100-70 100C84 3 66-7 56-30L54 0H23l1-261h32v101c10-23 28-34 59-34zm-8 174c40 0 45-34 45-75 0-40-5-75-45-74-42 0-51 32-51 76 0 43 10 73 51 73" id="am"/><path fill="#248814" d="M24 0v-261h32V0H24" id="an"/><path fill="#248814" d="M24-231v-30h32v30H24zM24 0v-190h32V0H24" id="ao"/><path fill="#248814" d="M96-169c-40 0-48 33-48 73s9 75 48 75c24 0 41-14 43-38l32 2c-6 37-31 61-74 61-59 0-76-41-82-99-10-93 101-131 147-64 4 7 5 14 7 22l-32 3c-4-21-16-35-41-35" id="ap"/><g id="h"><use transform="matrix(0.05555555555555555,0,0,0.05555555555555555,0,0)" xlink:href="#M"/><use transform="matrix(0.05555555555555555,0,0,0.05555555555555555,13.333333333333332,0)" xlink:href="#al"/><use transform="matrix(0.05555555555555555,0,0,0.05555555555555555,24.444444444444443,0)" xlink:href="#am"/><use transform="matrix(0.05555555555555555,0,0,0.05555555555555555,35.55555555555556,0)" xlink:href="#an"/><use transform="matrix(0.05555555555555555,0,0,0.05555555555555555,39.94444444444444,0)" xlink:href="#ao"/><use transform="matrix(0.05555555555555555,0,0,0.05555555555555555,44.33333333333333,0)" xlink:href="#ap"/></g><path fill="#248814" d="M185-189c-5-48-123-54-124 2 14 75 158 14 163 119 3 78-121 87-175 55-17-10-28-26-33-46l33-7c5 56 141 63 141-1 0-78-155-14-162-118-5-82 145-84 179-34 5 7 8 16 11 25" id="aq"/><path fill="#248814" d="M117-194c89-4 53 116 60 194h-32v-121c0-31-8-49-39-48C34-167 62-67 57 0H25l-1-190h30c1 10-1 24 2 32 11-22 29-35 61-36" id="ar"/><path fill="#248814" d="M100-194c63 0 86 42 84 106H49c0 40 14 67 53 68 26 1 43-12 49-29l28 8c-11 28-37 45-77 45C44 4 14-33 15-96c1-61 26-98 85-98zm52 81c6-60-76-77-97-28-3 7-6 17-6 28h103" id="as"/><path fill="#248814" d="M59-47c-2 24 18 29 38 22v24C64 9 27 4 27-40v-127H5v-23h24l9-43h21v43h35v23H59v120" id="at"/><g id="i"><use transform="matrix(0.05555555555555555,0,0,0.05555555555555555,0,0)" xlink:href="#aq"/><use transform="matrix(0.05555555555555555,0,0,0.05555555555555555,13.333333333333332,0)" xlink:href="#al"/><use transform="matrix(0.05555555555555555,0,0,0.05555555555555555,24.444444444444443,0)" xlink:href="#am"/><use transform="matrix(0.05555555555555555,0,0,0.05555555555555555,35.55555555555556,0)" xlink:href="#ar"/><use transform="matrix(0.05555555555555555,0,0,0.05555555555555555,46.66666666666667,0)" xlink:href="#as"/><use transform="matrix(0.05555555555555555,0,0,0.05555555555555555,57.777777777777786,0)" xlink:href="#at"/></g><g id="j"><use transform="matrix(0.05,0,0,0.05,0,0)" xlink:href="#ad"/><use transform="matrix(0.05,0,0,0.05,12,0)" xlink:href="#ae"/><use transform="matrix(0.05,0,0,0.05,17.95,0)" xlink:href="#R"/><use transform="matrix(0.05,0,0,0.05,21.9,0)" xlink:href="#af"/><use transform="matrix(0.05,0,0,0.05,30.899999999999995,0)" xlink:href="#ag"/><use transform="matrix(0.05,0,0,0.05,40.9,0)" xlink:href="#ah"/><use transform="matrix(0.05,0,0,0.05,45.9,0)" xlink:href="#P"/></g><g id="k"><use transform="matrix(0.05,0,0,0.05,0,0)" xlink:href="#ai"/><use transform="matrix(0.05,0,0,0.05,12,0)" xlink:href="#aj"/><use transform="matrix(0.05,0,0,0.05,22,0)" xlink:href="#ak"/><use transform="matrix(0.05,0,0,0.05,32,0)" xlink:href="#T"/><use transform="matrix(0.05,0,0,0.05,42,0)" xlink:href="#P"/><use transform="matrix(0.05,0,0,0.05,52,0)" xlink:href="#ah"/></g><path d="M205 0l-28-72H64L36 0H1l101-248h38L239 0h-34zm-38-99l-47-123c-12 45-31 82-46 123h93" id="au"/><path d="M210-169c-67 3-38 105-44 169h-31v-121c0-29-5-50-35-48C34-165 62-65 56 0H25l-1-190h30c1 10-1 24 2 32 10-44 99-50 107 0 11-21 27-35 58-36 85-2 47 119 55 194h-31v-121c0-29-5-49-35-48" id="av"/><path d="M141-36C126-15 110 5 73 4 37 3 15-17 15-53c-1-64 63-63 125-63 3-35-9-54-41-54-24 1-41 7-42 31l-33-3c5-37 33-52 76-52 45 0 72 20 72 64v82c-1 20 7 32 28 27v20c-31 9-61-2-59-35zM48-53c0 20 12 33 32 33 41-3 63-29 60-74-43 2-92-5-92 41" id="aw"/><path d="M9 0v-24l116-142H16v-24h144v24L44-24h123V0H9" id="ax"/><path d="M100-194c62-1 85 37 85 99 1 63-27 99-86 99S16-35 15-95c0-66 28-99 85-99zM99-20c44 1 53-31 53-75 0-43-8-75-51-75s-53 32-53 75 10 74 51 75" id="ay"/><path d="M117-194c89-4 53 116 60 194h-32v-121c0-31-8-49-39-48C34-167 62-67 57 0H25l-1-190h30c1 10-1 24 2 32 11-22 29-35 61-36" id="az"/><g id="l"><use transform="matrix(0.05555555555555555,0,0,0.05555555555555555,0,0)" xlink:href="#au"/><use transform="matrix(0.05555555555555555,0,0,0.05555555555555555,13.333333333333332,0)" xlink:href="#av"/><use transform="matrix(0.05555555555555555,0,0,0.05555555555555555,29.944444444444443,0)" xlink:href="#aw"/><use transform="matrix(0.05555555555555555,0,0,0.05555555555555555,41.05555555555556,0)" xlink:href="#ax"/><use transform="matrix(0.05555555555555555,0,0,0.05555555555555555,51.05555555555556,0)" xlink:href="#ay"/><use transform="matrix(0.05555555555555555,0,0,0.05555555555555555,62.16666666666668,0)" xlink:href="#az"/></g><path d="M233-177c-1 41-23 64-60 70L243 0h-38l-65-103H63V0H30v-248c88 3 205-21 203 71zM63-129c60-2 137 13 137-47 0-61-80-42-137-45v92" id="aA"/><path d="M30-248c118-7 216 8 213 122C240-48 200 0 122 0H30v-248zM63-27c89 8 146-16 146-99s-60-101-146-95v194" id="aB"/><path d="M185-189c-5-48-123-54-124 2 14 75 158 14 163 119 3 78-121 87-175 55-17-10-28-26-33-46l33-7c5 56 141 63 141-1 0-78-155-14-162-118-5-82 145-84 179-34 5 7 8 16 11 25" id="aC"/><g id="m"><use transform="matrix(0.05555555555555555,0,0,0.05555555555555555,0,0)" xlink:href="#aA"/><use transform="matrix(0.05555555555555555,0,0,0.05555555555555555,14.388888888888888,0)" xlink:href="#aB"/><use transform="matrix(0.05555555555555555,0,0,0.05555555555555555,28.777777777777775,0)" xlink:href="#aC"/></g><linearGradient gradientUnits="userSpaceOnUse" id="n" x1="1485.52" y1="28774.11" x2="1699.62" y2="28560"><stop offset="0%" stop-color="#c8511b"/><stop offset="100%" stop-color="#f90"/></linearGradient><path d="M30 0v-248h187v28H63v79h144v27H63v87h162V0H30" id="aD"/><path d="M194 0L95-120 63-95V0H30v-248h33v124l119-124h40L117-140 236 0h-42" id="aE"/><g id="o"><use transform="matrix(0.05555555555555555,0,0,0.05555555555555555,0,0)" xlink:href="#aD"/><use transform="matrix(0.05555555555555555,0,0,0.05555555555555555,13.333333333333332,0)" xlink:href="#aE"/><use transform="matrix(0.05555555555555555,0,0,0.05555555555555555,26.666666666666664,0)" xlink:href="#aC"/></g><path d="M115-194c55 1 70 41 70 98S169 2 115 4C84 4 66-9 55-30l1 105H24l-1-265h31l2 30c10-21 28-34 59-34zm-8 174c40 0 45-34 45-75s-6-73-45-74c-42 0-51 32-51 76 0 43 10 73 51 73" id="aF"/><path d="M24-231v-30h32v30H24zM24 0v-190h32V0H24" id="aG"/><path d="M16-82v-28h88v28H16" id="aH"/><path d="M106-169C34-169 62-67 57 0H25v-261h32l-1 103c12-21 28-36 61-36 89 0 53 116 60 194h-32v-121c2-32-8-49-39-48" id="aI"/><path d="M33 0v-38h34V0H33" id="aJ"/><path d="M179-190L93 31C79 59 56 82 12 73V49c39 6 53-20 64-50L1-190h34L92-34l54-156h33" id="aK"/><path d="M24 0v-261h32V0H24" id="aL"/><g id="p"><use transform="matrix(0.05,0,0,0.05,0,0)" xlink:href="#aw"/><use transform="matrix(0.05,0,0,0.05,10,0)" xlink:href="#aF"/><use transform="matrix(0.05,0,0,0.05,20,0)" xlink:href="#aG"/><use transform="matrix(0.05,0,0,0.05,23.95,0)" xlink:href="#aH"/><use transform="matrix(0.05,0,0,0.05,29.899999999999995,0)" xlink:href="#aI"/><use transform="matrix(0.05,0,0,0.05,39.9,0)" xlink:href="#aF"/><use transform="matrix(0.05,0,0,0.05,49.9,0)" xlink:href="#aw"/><use transform="matrix(0.05,0,0,0.05,59.900000000000006,0)" xlink:href="#aJ"/><use transform="matrix(0.05,0,0,0.05,64.9,0)" xlink:href="#aK"/><use transform="matrix(0.05,0,0,0.05,73.9,0)" xlink:href="#av"/><use transform="matrix(0.05,0,0,0.05,88.85000000000001,0)" xlink:href="#aL"/></g><path d="M135-143c-3-34-86-38-87 0 15 53 115 12 119 90S17 21 10-45l28-5c4 36 97 45 98 0-10-56-113-15-118-90-4-57 82-63 122-42 12 7 21 19 24 35" id="aM"/><path d="M100-194c63 0 86 42 84 106H49c0 40 14 67 53 68 26 1 43-12 49-29l28 8c-11 28-37 45-77 45C44 4 14-33 15-96c1-61 26-98 85-98zm52 81c6-60-76-77-97-28-3 7-6 17-6 28h103" id="aN"/><path d="M114-163C36-179 61-72 57 0H25l-1-190h30c1 12-1 29 2 39 6-27 23-49 58-41v29" id="aO"/><path d="M108 0H70L1-190h34L89-25l56-165h34" id="aP"/><path d="M96-169c-40 0-48 33-48 73s9 75 48 75c24 0 41-14 43-38l32 2c-6 37-31 61-74 61-59 0-76-41-82-99-10-93 101-131 147-64 4 7 5 14 7 22l-32 3c-4-21-16-35-41-35" id="aQ"/><g id="q"><use transform="matrix(0.05,0,0,0.05,0,0)" xlink:href="#aw"/><use transform="matrix(0.05,0,0,0.05,10,0)" xlink:href="#aF"/><use transform="matrix(0.05,0,0,0.05,20,0)" xlink:href="#aG"/><use transform="matrix(0.05,0,0,0.05,23.95,0)" xlink:href="#aH"/><use transform="matrix(0.05,0,0,0.05,29.899999999999995,0)" xlink:href="#aM"/><use transform="matrix(0.05,0,0,0.05,38.9,0)" xlink:href="#aN"/><use transform="matrix(0.05,0,0,0.05,48.9,0)" xlink:href="#aO"/><use transform="matrix(0.05,0,0,0.05,54.85,0)" xlink:href="#aP"/><use transform="matrix(0.05,0,0,0.05,63.85,0)" xlink:href="#aG"/><use transform="matrix(0.05,0,0,0.05,67.8,0)" xlink:href="#aQ"/><use transform="matrix(0.05,0,0,0.05,76.8,0)" xlink:href="#aN"/><use transform="matrix(0.05,0,0,0.05,86.8,0)" xlink:href="#aJ"/><use transform="matrix(0.05,0,0,0.05,91.8,0)" xlink:href="#aK"/><use transform="matrix(0.05,0,0,0.05,100.8,0)" xlink:href="#av"/><use transform="matrix(0.05,0,0,0.05,115.75,0)" xlink:href="#aL"/></g><path d="M30-248c87 1 191-15 191 75 0 78-77 80-158 76V0H30v-248zm33 125c57 0 124 11 124-50 0-59-68-47-124-48v98" id="aR"/><path d="M85-194c31 0 48 13 60 33l-1-100h32l1 261h-30c-2-10 0-23-3-31C134-8 116 4 85 4 32 4 16-35 15-94c0-66 23-100 70-100zm9 24c-40 0-46 34-46 75 0 40 6 74 45 74 42 0 51-32 51-76 0-42-9-74-50-73" id="aS"/><g id="r"><use transform="matrix(0.05,0,0,0.05,0,0)" xlink:href="#aR"/><use transform="matrix(0.05,0,0,0.05,12,0)" xlink:href="#ay"/><use transform="matrix(0.05,0,0,0.05,22,0)" xlink:href="#aS"/></g><path d="M59-47c-2 24 18 29 38 22v24C64 9 27 4 27-40v-127H5v-23h24l9-43h21v43h35v23H59v120" id="aT"/><g id="t"><use transform="matrix(0.05,0,0,0.05,0,0)" xlink:href="#au"/><use transform="matrix(0.05,0,0,0.05,12,0)" xlink:href="#aF"/><use transform="matrix(0.05,0,0,0.05,22,0)" xlink:href="#aF"/><use transform="matrix(0.05,0,0,0.05,32,0)" xlink:href="#aL"/><use transform="matrix(0.05,0,0,0.05,35.95,0)" xlink:href="#aG"/><use transform="matrix(0.05,0,0,0.05,39.900000000000006,0)" xlink:href="#aQ"/><use transform="matrix(0.05,0,0,0.05,48.900000000000006,0)" xlink:href="#aw"/><use transform="matrix(0.05,0,0,0.05,58.900000000000006,0)" xlink:href="#aT"/><use transform="matrix(0.05,0,0,0.05,63.900000000000006,0)" xlink:href="#aG"/><use transform="matrix(0.05,0,0,0.05,67.85000000000001,0)" xlink:href="#ay"/><use transform="matrix(0.05,0,0,0.05,77.85000000000001,0)" xlink:href="#az"/></g><path d="M30 0v-248h33v221h125V0H30" id="aU"/><g id="u"><use transform="matrix(0.05,0,0,0.05,0,0)" xlink:href="#aU"/><use transform="matrix(0.05,0,0,0.05,10,0)" xlink:href="#ay"/><use transform="matrix(0.05,0,0,0.05,20,0)" xlink:href="#aw"/><use transform="matrix(0.05,0,0,0.05,30,0)" xlink:href="#aS"/></g><path d="M160-131c35 5 61 23 61 61C221 17 115-2 30 0v-248c76 3 177-17 177 60 0 33-19 50-47 57zm-97-11c50-1 110 9 110-42 0-47-63-36-110-37v79zm0 115c55-2 124 14 124-45 0-56-70-42-124-44v89" id="aV"/><g id="v"><use transform="matrix(0.05,0,0,0.05,0,0)" xlink:href="#aV"/><use transform="matrix(0.05,0,0,0.05,12,0)" xlink:href="#aw"/><use transform="matrix(0.05,0,0,0.05,22,0)" xlink:href="#aL"/><use transform="matrix(0.05,0,0,0.05,25.950000000000003,0)" xlink:href="#aw"/><use transform="matrix(0.05,0,0,0.05,35.95,0)" xlink:href="#az"/><use transform="matrix(0.05,0,0,0.05,45.95,0)" xlink:href="#aQ"/><use transform="matrix(0.05,0,0,0.05,54.95,0)" xlink:href="#aN"/><use transform="matrix(0.05,0,0,0.05,64.95,0)" xlink:href="#aO"/></g><g id="w"><use transform="matrix(0.08641975308641976,0,0,0.08641975308641976,0,0)" xlink:href="#aw"/><use transform="matrix(0.08641975308641976,0,0,0.08641975308641976,17.283950617283953,0)" xlink:href="#aF"/><use transform="matrix(0.08641975308641976,0,0,0.08641975308641976,34.567901234567906,0)" xlink:href="#aG"/><use transform="matrix(0.08641975308641976,0,0,0.08641975308641976,41.39506172839506,0)" xlink:href="#aH"/><use transform="matrix(0.08641975308641976,0,0,0.08641975308641976,51.679012345679006,0)" xlink:href="#aS"/><use transform="matrix(0.08641975308641976,0,0,0.08641975308641976,68.96296296296296,0)" xlink:href="#aN"/><use transform="matrix(0.08641975308641976,0,0,0.08641975308641976,86.24691358024691,0)" xlink:href="#aF"/><use transform="matrix(0.08641975308641976,0,0,0.08641975308641976,103.53086419753086,0)" xlink:href="#aL"/><use transform="matrix(0.08641975308641976,0,0,0.08641975308641976,110.35802469135801,0)" xlink:href="#ay"/><use transform="matrix(0.08641975308641976,0,0,0.08641975308641976,127.64197530864197,0)" xlink:href="#aK"/><use transform="matrix(0.08641975308641976,0,0,0.08641975308641976,143.19753086419752,0)" xlink:href="#av"/><use transform="matrix(0.08641975308641976,0,0,0.08641975308641976,169.03703703703704,0)" xlink:href="#aN"/><use transform="matrix(0.08641975308641976,0,0,0.08641975308641976,186.32098765432096,0)" xlink:href="#az"/><use transform="matrix(0.08641975308641976,0,0,0.08641975308641976,203.6049382716049,0)" xlink:href="#aT"/><use transform="matrix(0.08641975308641976,0,0,0.08641975308641976,212.24691358024688,0)" xlink:href="#aJ"/><use transform="matrix(0.08641975308641976,0,0,0.08641975308641976,220.88888888888889,0)" xlink:href="#aK"/><use transform="matrix(0.08641975308641976,0,0,0.08641975308641976,236.44444444444446,0)" xlink:href="#av"/><use transform="matrix(0.08641975308641976,0,0,0.08641975308641976,262.28395061728395,0)" xlink:href="#aL"/></g><path d="M101-234c-31-9-42 10-38 44h38v23H63V0H32v-167H5v-23h27c-7-52 17-82 69-68v24" id="aW"/><path d="M177-190C167-65 218 103 67 71c-23-6-38-20-44-43l32-5c15 47 100 32 89-28v-30C133-14 115 1 83 1 29 1 15-40 15-95c0-56 16-97 71-98 29-1 48 16 59 35 1-10 0-23 2-32h30zM94-22c36 0 50-32 50-73 0-42-14-75-50-75-39 0-46 34-46 75s6 73 46 73" id="aX"/><g id="x"><use transform="matrix(0.05,0,0,0.05,0,0)" xlink:href="#aw"/><use transform="matrix(0.05,0,0,0.05,10,0)" xlink:href="#aF"/><use transform="matrix(0.05,0,0,0.05,20,0)" xlink:href="#aG"/><use transform="matrix(0.05,0,0,0.05,23.95,0)" xlink:href="#aJ"/><use transform="matrix(0.05,0,0,0.05,28.950000000000003,0)" xlink:href="#aQ"/><use transform="matrix(0.05,0,0,0.05,37.95,0)" xlink:href="#ay"/><use transform="matrix(0.05,0,0,0.05,47.95,0)" xlink:href="#az"/><use transform="matrix(0.05,0,0,0.05,57.95,0)" xlink:href="#aW"/><use transform="matrix(0.05,0,0,0.05,62.95,0)" xlink:href="#aG"/><use transform="matrix(0.05,0,0,0.05,66.9,0)" xlink:href="#aX"/><use transform="matrix(0.05,0,0,0.05,76.9,0)" xlink:href="#aJ"/><use transform="matrix(0.05,0,0,0.05,81.9,0)" xlink:href="#aK"/><use transform="matrix(0.05,0,0,0.05,90.9,0)" xlink:href="#av"/><use transform="matrix(0.05,0,0,0.05,105.85000000000001,0)" xlink:href="#aL"/></g><g id="y"><use transform="matrix(0.05,0,0,0.05,0,0)" xlink:href="#aw"/><use transform="matrix(0.05,0,0,0.05,10,0)" xlink:href="#aF"/><use transform="matrix(0.05,0,0,0.05,20,0)" xlink:href="#aG"/><use transform="matrix(0.05,0,0,0.05,23.95,0)" xlink:href="#aH"/><use transform="matrix(0.05,0,0,0.05,29.899999999999995,0)" xlink:href="#aM"/><use transform="matrix(0.05,0,0,0.05,38.9,0)" xlink:href="#aN"/><use transform="matrix(0.05,0,0,0.05,48.9,0)" xlink:href="#aQ"/><use transform="matrix(0.05,0,0,0.05,57.900000000000006,0)" xlink:href="#aO"/><use transform="matrix(0.05,0,0,0.05,63.85,0)" xlink:href="#aN"/><use transform="matrix(0.05,0,0,0.05,73.85,0)" xlink:href="#aT"/><use transform="matrix(0.05,0,0,0.05,78.85,0)" xlink:href="#aM"/><use transform="matrix(0.05,0,0,0.05,87.85,0)" xlink:href="#aJ"/><use transform="matrix(0.05,0,0,0.05,92.85,0)" xlink:href="#aK"/><use transform="matrix(0.05,0,0,0.05,101.85,0)" xlink:href="#av"/><use transform="matrix(0.05,0,0,0.05,116.80000000000001,0)" xlink:href="#aL"/></g><path d="M212-179c-10-28-35-45-73-45-59 0-87 40-87 99 0 60 29 101 89 101 43 0 62-24 78-52l27 14C228-24 195 4 139 4 59 4 22-46 18-125c-6-104 99-153 187-111 19 9 31 26 39 46" id="aY"/><path d="M101-251c82-7 93 87 43 132L82-64C71-53 59-42 53-27h129V0H18c2-99 128-94 128-182 0-28-16-43-45-43s-46 15-49 41l-32-3c6-41 34-60 81-64" id="aZ"/><g id="z"><use transform="matrix(0.08641975308641976,0,0,0.08641975308641976,0,0)" xlink:href="#aD"/><use transform="matrix(0.08641975308641976,0,0,0.08641975308641976,20.740740740740744,0)" xlink:href="#aY"/><use transform="matrix(0.08641975308641976,0,0,0.08641975308641976,43.12345679012346,0)" xlink:href="#aZ"/></g><path d="M33 0v-248h34V0H33" id="ba"/><g id="A"><use transform="matrix(0.08641975308641976,0,0,0.08641975308641976,0,0)" xlink:href="#ba"/><use transform="matrix(0.08641975308641976,0,0,0.08641975308641976,8.641975308641976,0)" xlink:href="#az"/><use transform="matrix(0.08641975308641976,0,0,0.08641975308641976,25.925925925925927,0)" xlink:href="#aM"/><use transform="matrix(0.08641975308641976,0,0,0.08641975308641976,41.48148148148149,0)" xlink:href="#aT"/><use transform="matrix(0.08641975308641976,0,0,0.08641975308641976,50.12345679012346,0)" xlink:href="#aw"/><use transform="matrix(0.08641975308641976,0,0,0.08641975308641976,67.40740740740742,0)" xlink:href="#az"/><use transform="matrix(0.08641975308641976,0,0,0.08641975308641976,84.69135802469137,0)" xlink:href="#aQ"/><use transform="matrix(0.08641975308641976,0,0,0.08641975308641976,100.24691358024693,0)" xlink:href="#aN"/></g><path d="M175 0L67-191c6 58 2 128 3 191H24v-248h59L193-55c-6-58-2-129-3-193h46V0h-61" id="bb"/><path d="M110-194c64 0 96 36 96 99 0 64-35 99-97 99-61 0-95-36-95-99 0-62 34-99 96-99zm-1 164c35 0 45-28 45-65 0-40-10-65-43-65-34 0-45 26-45 65 0 36 10 65 43 65" id="bc"/><path d="M88-194c31-1 46 15 58 34l-1-101h50l1 261h-48c-2-10 0-23-3-31C134-8 116 4 84 4 32 4 16-41 15-95c0-56 19-97 73-99zm17 164c33 0 40-30 41-66 1-37-9-64-41-64s-38 30-39 65c0 43 13 65 39 65" id="bd"/><path d="M185-48c-13 30-37 53-82 52C43 2 14-33 14-96s30-98 90-98c62 0 83 45 84 108H66c0 31 8 55 39 56 18 0 30-7 34-22zm-45-69c5-46-57-63-70-21-2 6-4 13-4 21h74" id="be"/><g id="B"><use transform="matrix(0.04320987654320988,0,0,0.04320987654320988,0,0)" xlink:href="#bb"/><use transform="matrix(0.04320987654320988,0,0,0.04320987654320988,11.19135802469136,0)" xlink:href="#bc"/><use transform="matrix(0.04320987654320988,0,0,0.04320987654320988,20.654320987654323,0)" xlink:href="#bd"/><use transform="matrix(0.04320987654320988,0,0,0.04320987654320988,30.11728395061729,0)" xlink:href="#be"/></g><g id="C"><use transform="matrix(0.05,0,0,0.05,0,0)" xlink:href="#aY"/><use transform="matrix(0.05,0,0,0.05,12.950000000000001,0)" xlink:href="#aL"/><use transform="matrix(0.05,0,0,0.05,16.900000000000002,0)" xlink:href="#aG"/><use transform="matrix(0.05,0,0,0.05,20.85,0)" xlink:href="#aN"/><use transform="matrix(0.05,0,0,0.05,30.85,0)" xlink:href="#az"/><use transform="matrix(0.05,0,0,0.05,40.85,0)" xlink:href="#aT"/></g></defs></g></svg>